<svg width="40" height="44" viewBox="0 0 40 44" fill="none" xmlns="http://www.w3.org/2000/svg">
<path fill-rule="evenodd" clip-rule="evenodd" d="M12.2457 25.7577L0.281088 1.5025C0.121838 1.17958 0.140588 0.797417 0.330671 0.491667C0.520755 0.185917 0.855255 0 1.21525 0H9.54859C9.94634 0 10.3093 0.226417 10.4842 0.583583L14.1936 8.15975H29.3918C29.6575 8.15975 29.8168 8.15975 29.8457 8.15975H29.8467L29.8483 8.15983C30.0023 8.15967 34.5566 8.18458 37.3124 11.4046C38.5148 12.8095 39.4044 14.8154 39.4044 17.7083C39.4044 24.814 39.3826 25.9152 39.3757 26.0853C39.3645 26.7238 39.0392 35.5896 29.8558 35.5903C29.8558 35.5903 29.8558 35.5903 29.8558 35.5903H17.6503L11.7712 43.437C11.5418 43.7433 11.1813 43.9236 10.7986 43.9236H1.21525C0.756421 43.9236 0.336671 43.6651 0.130088 43.2553C-0.0764953 42.8456 -0.0345786 42.3544 0.238338 41.9855L12.2457 25.7577ZM1.61192 42.4642L1.55975 42.5348H1.64751L1.62842 42.5001L1.61192 42.4642ZM36.9492 25.9355C36.9538 25.717 36.9738 24.3763 36.9738 17.7083C36.9738 15.5488 36.3634 14.0338 35.4658 12.985C33.3701 10.5363 29.8699 10.5902 29.8699 10.5902C29.8694 10.5902 29.869 10.5902 29.8685 10.5903C29.8643 10.5903 29.86 10.5903 29.8558 10.5903H15.4158L18.4506 16.493L29.8557 16.4921C30.178 16.492 30.4872 16.6201 30.7151 16.848C30.943 17.0759 31.0711 17.385 31.0711 17.7073V26.0417C31.0711 26.7128 30.5269 27.2569 29.8558 27.2569H14.1598L3.62626 41.4931H10.1906L16.0697 33.6463C16.2992 33.34 16.6595 33.1598 17.0423 33.1598H29.8519H29.8538H29.8557C36.5136 33.1592 36.9188 26.9009 36.9439 26.1124C36.94 26.0556 36.9413 25.9966 36.9492 25.9355ZM38.3136 26.4806L38.3128 26.4893C38.4979 26.6066 38.6944 26.6069 38.8896 26.5288L38.8762 26.5336L38.8756 26.5338L38.8566 26.5395L38.8444 26.5434L38.8386 26.5448L38.8304 26.5473L38.8023 26.5537L38.7926 26.5561L38.7902 26.5564C38.756 26.5633 38.7216 26.5676 38.6873 26.5692C38.6767 26.5697 38.666 26.5699 38.6554 26.5699L38.6471 26.5701L38.6374 26.5697L38.6325 26.5696L38.6143 26.5687L38.6013 26.5681L38.5865 26.5665L38.5783 26.5658L38.5711 26.5648L38.5558 26.5632L38.5295 26.5585L38.5241 26.5576L38.5233 26.5574L38.5108 26.5552L38.4663 26.5443L38.4443 26.5373L38.4433 26.537L38.4426 26.5368C38.3979 26.5227 38.3547 26.504 38.3136 26.4806ZM39.3149 26.0903L39.3144 26.0918L39.3141 26.0929L39.309 26.1075L39.3058 26.1168L39.3054 26.1175L39.3051 26.1184L39.2975 26.1378L39.2955 26.1428L39.2954 26.143C39.2848 26.1684 39.2726 26.1933 39.2588 26.2177L39.2449 26.2411L39.2446 26.2416L39.2378 26.2523L39.2298 26.2645L39.2295 26.2649L39.2222 26.2753L39.2138 26.2873L39.2134 26.2876L39.2091 26.2933L39.1969 26.3092L39.1965 26.3097L39.1941 26.3126L39.1793 26.3303L39.1787 26.331L39.176 26.3339L39.161 26.3506L39.1603 26.3513L39.16 26.3517L39.1558 26.3559L39.142 26.3701L39.1411 26.371L39.1405 26.3716L39.1344 26.3773L39.1223 26.3888L39.1212 26.3898L39.1202 26.3907L39.1124 26.3974L39.102 26.4066L39.1006 26.4078L39.0991 26.4091L39.0901 26.4162L39.0811 26.4235L39.08 26.4243C39.067 26.4344 39.0537 26.444 39.0398 26.4531L39.0375 26.4548L39.0359 26.4558C39.0225 26.4646 39.0087 26.473 38.9945 26.4809L38.9918 26.4825L38.9895 26.4837L38.9885 26.4843C39.0683 26.4466 39.2381 26.3581 39.3178 26.0811L39.3149 26.0903ZM39.3757 26.0853L39.3759 26.0731L39.3751 26.0994C39.3753 26.0956 39.3755 26.0909 39.3757 26.0853ZM37.9779 25.7173L37.9785 25.7144C37.9785 25.7144 37.9788 25.7133 37.9768 25.7215L37.9779 25.7173Z" fill="#171818"/>
</svg>
