<svg width="140" height="140" viewBox="0 0 140 140" fill="none" xmlns="http://www.w3.org/2000/svg">
<g clip-path="url(#clip0_106_2)">
<path fill-rule="evenodd" clip-rule="evenodd" d="M46.2609 81.9562L8.19173 4.78068C7.68503 3.75322 7.74469 2.53724 8.3495 1.56439C8.95431 0.591553 10.0186 0 11.1641 0H37.6792C38.9448 0 40.0995 0.720417 40.6561 1.85686L52.4588 25.9628H100.817C101.662 25.9628 102.169 25.9628 102.261 25.9628H102.264L102.269 25.9631C102.759 25.9626 117.25 26.0419 126.019 36.2873C129.845 40.7575 132.675 47.14 132.675 56.3447C132.675 78.9536 132.606 82.4574 132.584 82.9985C132.548 85.0301 131.513 113.24 102.293 113.242H63.4573L44.7511 138.209C44.0211 139.183 42.8744 139.757 41.6565 139.757H11.1641C9.70416 139.757 8.36859 138.934 7.71128 137.631C7.05397 136.327 7.18734 134.764 8.05571 133.59L46.2609 81.9562ZM12.4262 135.113L12.2602 135.338H12.5394L12.4787 135.228L12.4262 135.113ZM124.863 82.5221C124.878 81.8268 124.941 77.5608 124.941 56.3447C124.941 49.4733 122.999 44.6531 120.143 41.3159C113.475 33.5247 102.338 33.696 102.338 33.696L102.334 33.6963C102.32 33.6963 102.306 33.6963 102.293 33.6963H56.3478L66.0038 52.4777L102.293 52.4748C103.318 52.4745 104.302 52.8821 105.027 53.6073C105.752 54.3325 106.16 55.3159 106.16 56.3415V82.8599C106.16 84.9954 104.428 86.7266 102.293 86.7266H52.3514L18.8354 132.023H39.722L58.4281 107.057C59.1584 106.082 60.3049 105.508 61.5227 105.508H102.281H102.287H102.293C123.477 105.506 124.766 85.5938 124.846 83.085C124.834 82.9041 124.838 82.7164 124.863 82.5221ZM129.204 84.2564L129.202 84.2842C129.791 84.6573 130.416 84.6584 131.037 84.4097L130.994 84.425L130.992 84.4256L130.932 84.4439L130.893 84.4563L130.875 84.4608L130.849 84.4688L130.759 84.4889L130.728 84.4966L130.721 84.4977C130.612 84.5197 130.502 84.5332 130.393 84.5383C130.36 84.5399 130.326 84.5406 130.292 84.5406L130.265 84.5412L130.235 84.5399L130.219 84.5396L130.161 84.5367L130.12 84.5348L130.073 84.5298L130.046 84.5274L130.024 84.5245L129.975 84.5192L129.891 84.5043L129.874 84.5014L129.871 84.5009L129.832 84.4937L129.69 84.459L129.62 84.437L129.617 84.4359L129.615 84.4351C129.473 84.3903 129.335 84.3309 129.204 84.2564ZM132.39 83.0147L132.389 83.0192L132.388 83.0229L132.371 83.0693L132.361 83.0988L132.36 83.1011L132.359 83.1041L132.335 83.1656L132.329 83.1815C132.295 83.2624 132.256 83.3424 132.212 83.4199L132.168 83.4944L132.167 83.4959L132.145 83.5299L132.119 83.5689L132.119 83.5702L132.095 83.6031L132.068 83.6413L132.067 83.6423L132.054 83.6603L132.015 83.711L132.014 83.7126L132.006 83.7219L131.959 83.7783L131.957 83.7805L131.948 83.7897L131.901 83.8428L131.898 83.8452L131.897 83.8462L131.884 83.8597L131.84 83.9048L131.837 83.9077L131.835 83.9096L131.816 83.9279L131.778 83.9642L131.774 83.9677L131.771 83.9703L131.746 83.9918L131.713 84.021L131.708 84.0247L131.704 84.0289L131.675 84.0514L131.646 84.0748L131.643 84.0774C131.601 84.1095 131.559 84.14 131.515 84.1689L131.508 84.1745L131.503 84.1774C131.46 84.2055 131.416 84.2323 131.371 84.2575L131.362 84.2625L131.355 84.2662L131.352 84.2681C131.605 84.1482 132.146 83.8666 132.399 82.9853L132.39 83.0147ZM132.584 82.9985L132.584 82.9598L132.582 83.0436C132.582 83.0314 132.583 83.0166 132.584 82.9985ZM128.136 81.8279L128.138 81.8186C128.138 81.8186 128.139 81.8152 128.133 81.8411L128.136 81.8279Z" fill="white"/>
</g>
<defs>
<clipPath id="clip0_106_2">
<rect width="140" height="140" fill="white"/>
</clipPath>
</defs>
</svg>
