<svg height="845" width="2500" xmlns="http://www.w3.org/2000/svg" viewBox="0 0.13 585.72 197.02"><g fill="#1975d1" fill-rule="evenodd"><path d="M87.8 61.19h43.9V71H87.8zm0 58.62h43.9v9.77H87.8zm-14.63-19.54h73.16V110H73.17zm0-19.54h73.16v9.77H73.17zM29.27 93l80.51 78.15 80.45-78.16-80.45-78.2zM109.42.13L197.55 85l12.77-11.91 9.18 8.31-109.75 106.8-89.3-86.69-11.82 11.41L0 104.55zM522.46 154.46L476.8 46.92h15.87L530 135.55l39.86-88.63h15.86l-67.98 150.23h-15.65zM365.72 46.92h15v14.23h.43a44.18 44.18 0 0 1 4.71-5.49 33.67 33.67 0 0 1 7.51-5.59 49.16 49.16 0 0 1 10.39-4.27 47.75 47.75 0 0 1 13.4-1.73 64 64 0 0 1 19.93 3 45.75 45.75 0 0 1 17.14 10.67 43.31 43.31 0 0 1 10.61 15.76c2.667 6.427 4 14.253 4 23.48v61.19h-15V96.93c0-7.333-1.037-13.5-3.11-18.5a32.87 32.87 0 0 0-8-12 32.25 32.25 0 0 0-13.4-7.62 38.93 38.93 0 0 0-24.21 0 32 32 0 0 0-21.22 19.31 46 46 0 0 0-3.11 17.79v62.21h-15zm-42.87 0h15v111.2h-15zm0-39.23h15V33.3h-15zm-58.93 52h-24.65V46.92h24.65V7.69h15v39.23H307v12.81h-28.08v98.39h-15z"/></g></svg>