<svg width="40" height="44" viewBox="0 0 40 44" fill="none" xmlns="http://www.w3.org/2000/svg">
<path fill-rule="evenodd" clip-rule="evenodd" d="M12.5391 25.7577L0.574545 1.5025C0.415295 1.17958 0.434045 0.797417 0.624128 0.491667C0.814212 0.185917 1.14871 0 1.50871 0H9.84205C10.2398 0 10.6027 0.226417 10.7776 0.583583L14.487 8.15975H29.6852C29.951 8.15975 30.1103 8.15975 30.1391 8.15975H30.1401L30.1417 8.15983C30.2958 8.15967 34.85 8.18458 37.6059 11.4046C38.8083 12.8095 39.6979 14.8154 39.6979 17.7083C39.6979 24.814 39.676 25.9152 39.6691 26.0853C39.658 26.7238 39.3326 35.5896 30.1493 35.5903C30.1493 35.5903 30.1493 35.5903 30.1492 35.5903H17.9437L12.0646 43.437C11.8352 43.7433 11.4748 43.9236 11.092 43.9236H1.50871C1.04988 43.9236 0.630128 43.6651 0.423545 43.2553C0.216962 42.8456 0.258878 42.3544 0.531795 41.9855L12.5391 25.7577ZM1.90538 42.4642L1.85321 42.5348H1.94096L1.92188 42.5001L1.90538 42.4642ZM37.2426 25.9355C37.2472 25.717 37.2673 24.3763 37.2673 17.7083C37.2673 15.5488 36.6569 14.0338 35.7593 12.985C33.6635 10.5363 30.1634 10.5902 30.1634 10.5902C30.1629 10.5902 30.1625 10.5902 30.162 10.5903C30.1577 10.5903 30.1535 10.5903 30.1492 10.5903H15.7093L18.744 16.493L30.1491 16.4921C30.4715 16.492 30.7806 16.6201 31.0085 16.848C31.2365 17.0759 31.3645 17.385 31.3645 17.7073V26.0417C31.3645 26.7128 30.8204 27.2569 30.1492 27.2569H14.4533L3.91971 41.4931H10.484L16.3631 33.6463C16.5926 33.34 16.953 33.1598 17.3357 33.1598H30.1454H30.1473H30.1491C36.807 33.1592 37.2123 26.9009 37.2374 26.1124C37.2335 26.0556 37.2348 25.9966 37.2426 25.9355ZM38.6071 26.4806L38.6063 26.4893C38.7914 26.6066 38.9879 26.6069 39.183 26.5288L39.1696 26.5336L39.169 26.5338L39.1501 26.5395L39.1379 26.5434L39.132 26.5448L39.1239 26.5473L39.0957 26.5537L39.086 26.5561L39.0836 26.5564C39.0495 26.5633 39.015 26.5676 38.9807 26.5692C38.9701 26.5697 38.9595 26.5699 38.9489 26.5699L38.9406 26.5701L38.9309 26.5697L38.926 26.5696L38.9077 26.5687L38.8947 26.5681L38.88 26.5665L38.8717 26.5658L38.8646 26.5648L38.8492 26.5632L38.823 26.5585L38.8176 26.5576L38.8167 26.5574L38.8042 26.5552L38.7598 26.5443L38.7377 26.5373L38.7368 26.537L38.736 26.5368C38.6914 26.5227 38.6481 26.504 38.6071 26.4806ZM39.6084 26.0903L39.6079 26.0918L39.6076 26.0929L39.6025 26.1075L39.5992 26.1168L39.5989 26.1175L39.5986 26.1184L39.591 26.1378L39.589 26.1428L39.5889 26.143C39.5783 26.1684 39.566 26.1933 39.5523 26.2177L39.5384 26.2411L39.5381 26.2416L39.5312 26.2523L39.5232 26.2645L39.523 26.2649L39.5156 26.2753L39.5072 26.2873L39.5069 26.2876L39.5026 26.2933L39.4904 26.3092L39.49 26.3097L39.4876 26.3126L39.4728 26.3303L39.4721 26.331L39.4695 26.3339L39.4545 26.3506L39.4537 26.3513L39.4535 26.3517L39.4493 26.3559L39.4355 26.3701L39.4346 26.371L39.434 26.3716L39.4279 26.3773L39.4158 26.3888L39.4146 26.3898L39.4136 26.3907L39.4059 26.3974L39.3955 26.4066L39.3941 26.4078L39.3926 26.4091L39.3835 26.4162L39.3745 26.4235L39.3735 26.4243C39.3605 26.4344 39.3471 26.444 39.3333 26.4531L39.331 26.4548L39.3294 26.4558C39.316 26.4646 39.3021 26.473 39.288 26.4809L39.2852 26.4825L39.283 26.4837L39.282 26.4843C39.3617 26.4466 39.5315 26.3581 39.6112 26.0811L39.6084 26.0903ZM39.6691 26.0853L39.6694 26.0731L39.6686 26.0994C39.6687 26.0956 39.669 26.0909 39.6691 26.0853ZM38.2714 25.7173L38.272 25.7144C38.272 25.7144 38.2722 25.7133 38.2703 25.7215L38.2714 25.7173Z" fill="white"/>
</svg>
