<?xml version="1.0" standalone="no"?>
<!DOCTYPE svg PUBLIC "-//W3C//DTD SVG 1.1//EN" "http://www.w3.org/Graphics/SVG/1.1/DTD/svg11.dtd" >
<svg xmlns="http://www.w3.org/2000/svg" xmlns:xlink="http://www.w3.org/1999/xlink" version="1.1">
<metadata>
Created by FontForge 20161116 at Fri Jul 28 16:38:44 2017
 By Jimmy Wärting
</metadata>
<defs>
<font id="iconfont" horiz-adv-x="1024" >
  <font-face 
    font-family="iconfont"
    font-weight="400"
    font-stretch="normal"
    units-per-em="1024"
    panose-1="0 0 0 0 0 0 0 0 0 0"
    ascent="960"
    descent="-64"
    bbox="0 -73 1170 951"
    underline-thickness="0"
    underline-position="0"
    unicode-range="U+0001-FFFD"
  />
<missing-glyph 
 />
    <glyph glyph-name=".notdef" unicode="&#xfffd;" 
 />
    <glyph glyph-name="glyph1" horiz-adv-x="0" 
d="M0 0v0v0v0z" />
    <glyph glyph-name="glyph1" horiz-adv-x="0" 
d="M0 0v0v0v0z" />
    <glyph glyph-name="uni0001" horiz-adv-x="0" 
d="M0 0v0v0v0z" />
    <glyph glyph-name="space" unicode=" " horiz-adv-x="512" 
d="M0 0v0v0v0z" />
    <glyph glyph-name="uniE900" unicode="&#xe900;" 
d="M105 861h814v-92h-814v92v0zM849 315v358h-674v-358h674zM273 582h479v-176h-479v176zM703 108q22 33 42.5 72t39.5 84l-97 35q-20 -52 -42 -100t-47 -91h-171q-21 56 -45 104t-51 87l-90 -35q28 -42 50.5 -81t39.5 -75h-250v-91h860v91h-239v0z" />
    <glyph glyph-name="uniE901" unicode="&#xe901;" 
d="M356 777l-93 91l-4.5 11.5t14.5 26.5q18 15 23 12.5t11 -6.5q3 -2 25.5 -23.5t47.5 -46.5t46 -45l21 -20h-91v0zM667 773l94 91l4.5 11.5t-14.5 27.5q-19 15 -23.5 12t-11.5 -7q-3 -2 -25 -23.5t-47.5 -46t-46 -45l-20.5 -20.5h90v0zM1019 605q-3 107 -65 138.5l-62 31.5
l-101 0.5t-232 1t-257 0.5t-175 -2q-99 -28 -110.5 -99l-11.5 -71l0.5 -46t0.5 -112.5v-140t-1 -126.5q11 -108 67.5 -137l56.5 -29l26.5 -0.5t50.5 -0.5q2 -7 10 -30.5t46 -23.5q37 0 46 27l9 27l58 0.5t129 0.5t134.5 0.5t74.5 0.5q2 -12 12 -34.5t48 -21.5q37 1 45 30
l8 29l15 1t53 -1q88 17 106.5 89l18.5 72l-0.5 46.5t-0.5 113.5v140t1 126v0zM917 153q0 -17 -11.5 -29t-28.5 -12h-720q-17 0 -28.5 12t-11.5 29v477q0 17 11.5 29t28.5 12h720q17 0 28.5 -12t11.5 -29v-477zM193 495l212 41l16 -80l-210 -40zM851 495l-211 41l-16 -80
l210 -40zM421 298l29.5 -28t68.5 55q37 -81 71 -54.5l34 26.5l31 -21l-39 -38t-96 15q-49 -53 -91.5 -15l-42.5 38l35 22v0z" />
    <glyph glyph-name="uniE902" unicode="&#xe902;" 
d="M544 391l-4 35t-30 38q-25 2 -81.5 1l-56.5 -1v213h156l-4.5 35.5t-27.5 35.5h-254l43 113l-35 -7t-52 -37q-9 -16 -25 -56t-31.5 -82t-27.5 -74.5l-12 -32.5l17.5 -1.5t48.5 20.5q30 23 42.5 53.5l12.5 30.5l74 3l2 -216l-68 0.5t-88 -0.5t-30.5 -37l-10.5 -36h197
l-15 -71t-52 -136q-39 -66 -93.5 -111.5l-54.5 -45.5l43 -9t94 20q25 15 46.5 51t37.5 72.5t24.5 65l8.5 28.5l158 -197l5 50t-7 70q-13 20 -61.5 76.5l-48.5 56.5l-41 -35l29 117h172v0zM585 753l-2 -641h64l23 -79l112 79h158v641h-355v0zM869 183h-75l-94 -72l-21 72h-20
v497h210v-497v0z" />
    <glyph glyph-name="uniF00D" unicode="&#xf00d;" horiz-adv-x="805" 
d="M742 195q0 -10 -4.5 -20.5t-11.5 -17.5l-78 -78q-8 -8 -18 -12t-21 -4t-21 4t-18 12l-168 168l-168 -168q-7 -8 -17.5 -12t-21.5 -4q-10 0 -20.5 4t-17.5 12l-78 78q-8 7 -12 17.5t-4 20.5q0 11 4 21.5t12 17.5l168 168l-168 168q-8 8 -12 18t-4 21t4 21t12 18l78 78
q7 7 17.5 11.5t20.5 4.5q11 0 21.5 -4.5t17.5 -11.5l168 -168l168 168q8 7 18 11.5t21 4.5t21 -4.5t18 -11.5l78 -78q7 -8 11.5 -18t4.5 -21t-4.5 -21t-11.5 -18l-168 -168l168 -168q7 -7 11.5 -17.5t4.5 -21.5v0z" />
    <glyph glyph-name="uniF082" unicode="&#xf082;" horiz-adv-x="878" 
d="M713 878q68 0 116.5 -48.5t48.5 -116.5v-548q0 -69 -48.5 -117t-116.5 -48h-107v340h113l18 133h-131v84q0 29 12 46.5t53 17.5l70 1v118q-9 1 -37.5 3t-64.5 2q-75 0 -122.5 -45t-47.5 -130v-97h-115v-133h115v-340h-304q-69 0 -117 48t-48 117v548q0 68 48 116.5
t117 48.5h548v0z" />
    <glyph glyph-name="uniF099" unicode="&#xf099;" horiz-adv-x="951" 
d="M926 718q-19 -28 -42.5 -52t-50.5 -44q1 -6 1 -12v-12q0 -91 -34.5 -184.5t-101 -169t-164.5 -123.5t-225 -48q-79 0 -151 22t-133 61q11 -1 22 -1.5t23 -0.5q64 0 122.5 20.5t106.5 58.5q-61 1 -108 37t-65 91q9 -2 17.5 -2.5t17.5 -0.5q13 0 25 1.5t24 4.5
q-64 13 -106 63.5t-42 117.5v2q18 -10 39 -16t44 -7q-37 25 -59.5 65.5t-22.5 88.5q0 25 6.5 48.5t18.5 44.5q34 -42 76 -76.5t90.5 -59.5t102.5 -39.5t112 -17.5q-3 10 -4 20.5t-1 21.5q0 76 54 130.5t131 54.5q39 0 74 -16t60 -43q32 6 61.5 17.5t56.5 27.5
q-11 -32 -32 -58.5t-50 -43.5q28 3 55 10.5t52 18.5v0z" />
    <glyph glyph-name="uniF09B" unicode="&#xf09b;" horiz-adv-x="878" 
d="M439 878q91 0 171 -34.5t139.5 -94t94 -139.5t34.5 -171q0 -73 -22.5 -139t-62.5 -120.5t-95 -95t-120 -62.5q-17 -3 -24 5t-7 16q0 11 0.5 44t0.5 77q0 31 -9 51t-21 30q74 8 137.5 49t63.5 168q0 36 -12 65t-33 52q3 9 8 40.5t-13 76.5q-27 9 -73.5 -18l-46.5 -27
q-27 7 -54.5 11t-55.5 4t-56 -4t-54 -11l-46.5 27t-73.5 18q-18 -45 -13 -76.5t8 -40.5q-21 -23 -33 -52t-12 -65q0 -126 63.5 -167.5t136.5 -49.5q-10 -8 -17.5 -23t-10.5 -36q-19 -8 -59 -11t-69 48q-18 31 -42.5 38l-24.5 7q-32 0 -17.5 -13.5l14.5 -13.5
q22 -10 35.5 -37l13.5 -27q19 -59 83.5 -55.5l64.5 3.5v-50v-32q0 -8 -6.5 -16t-23.5 -5q-65 22 -120 62.5t-95 95t-62.5 120.5t-22.5 139q0 91 34.5 171t94 139.5t139.5 94t171 34.5v0zM166 247q1 2 0 4t-4 3q-2 1 -4 0.5t-3 -1.5q-1 -2 0 -3.5t4 -3.5q2 -1 4 -0.5t3 1.5z
M184 228q2 1 1.5 4t-2.5 5t-5 3t-4 -1q-2 -1 -1.5 -4t2.5 -5t4.5 -3t4.5 1zM201 202q2 2 2 5t-2 6t-4.5 4t-5.5 0q-2 -2 -2 -5t2 -6q3 -3 5.5 -4t4.5 0zM225 178q2 2 1 5.5t-3 5.5q-3 3 -6.5 3.5t-5.5 -1.5t-1 -5t4 -6t6 -3.5t5 1.5zM258 164q1 3 -1.5 5.5t-6.5 3.5
q-3 1 -6.5 0t-4.5 -4q0 -2 2 -5t6 -3q3 -2 6.5 -1t4.5 4v0zM294 161q0 3 -3 5t-7 1q-4 0 -6.5 -1.5t-2.5 -4.5t2.5 -5t7.5 -1q3 0 6 2t3 4v0zM327 167q-1 2 -4 3.5t-6 1.5q-4 -1 -6.5 -3.5t-1.5 -5.5q0 -2 3 -3.5t7 -0.5t6 3t2 5v0z" />
    <glyph glyph-name="uniF09E" unicode="&#xf09e;" horiz-adv-x="805" 
d="M219 183q0 -46 -32 -78t-77 -32q-46 0 -78 32t-32 78q0 45 32 77.5t78 32.5q45 0 77 -32.5t32 -77.5zM512 113q0 -8 -2.5 -15t-7.5 -13t-12 -9t-15 -3h-77q-14 0 -24 9.5t-12 23.5q-6 66 -33.5 123t-71.5 101t-101 71.5t-123 33.5q-14 2 -23.5 12t-9.5 24v78q0 7 3 14
t9 12q5 5 11.5 7.5t13.5 2.5h2q46 -4 90 -15.5t85 -30.5t78.5 -45t69.5 -59q33 -32 59 -69.5t45 -78.5t30.5 -85t15.5 -89v0zM805 111q0 -7 -2.5 -14t-8.5 -12q-5 -6 -11.5 -9t-14.5 -3h-82q-14 0 -24.5 10t-11.5 24q-7 125 -57.5 234t-133 191.5t-191.5 133t-234 57.5
q-14 1 -24 11.5t-10 24.5v82q0 8 3 14.5t8 11.5q6 6 12.5 8.5t13.5 2.5h1q75 -4 147.5 -21.5t139.5 -47.5t128.5 -72t114.5 -96q53 -53 95.5 -114.5t72.5 -128.5t47.5 -139.5t21.5 -147.5v0z" />
    <glyph glyph-name="uniF0C9" unicode="&#xf0c9;" horiz-adv-x="878" 
d="M878 183v-73q0 -15 -11 -26t-26 -11h-804q-15 0 -26 11t-11 26v73q0 15 11 25.5t26 10.5h804q15 0 26 -10.5t11 -25.5zM878 475v-73q0 -15 -11 -25.5t-26 -10.5h-804q-15 0 -26 10.5t-11 25.5v73q0 15 11 26t26 11h804q15 0 26 -11t11 -26zM878 768v-73q0 -15 -11 -26
t-26 -11h-804q-15 0 -26 11t-11 26v73q0 15 11 26t26 11h804q15 0 26 -11t11 -26z" />
    <glyph glyph-name="uniF0D2" unicode="&#xf0d2;" horiz-adv-x="878" 
d="M878 439q0 -91 -34.5 -171t-94 -139.5t-139.5 -94t-171 -34.5q-33 0 -64 4.5t-61 13.5q13 20 25.5 44.5t19.5 49.5l5.5 22.5t25.5 98.5q11 -22 41 -38.5t66 -16.5q52 0 96 22.5t75 63t48.5 95.5t17.5 120q0 48 -20 93.5t-56.5 80.5t-88 56t-114.5 21q-78 0 -136.5 -25
t-97.5 -65t-59 -88.5t-20 -95.5q0 -57 22 -103t68 -65q7 -3 13.5 0t8.5 11q1 6 4 17.5t5 17.5q2 9 1 13.5t-7 11.5q-14 16 -22 36.5t-8 49.5q0 42 15 80t43.5 67t68 46t89.5 17q89 0 136 -48t47 -120q0 -95 -38.5 -164t-100.5 -69q-34 0 -55.5 24.5t-13.5 59.5
q10 42 24.5 84t14.5 72q0 27 -15 46.5t-45 19.5q-35 0 -59.5 -32.5t-24.5 -81.5l1.5 -24t12.5 -45q-36 -153 -46.5 -196l-10.5 -43q-6 -25 -7 -51.5t0 -49.5q-58 25 -106.5 66t-83 93t-54 113.5t-19.5 129.5q0 91 34.5 171t94 139.5t139.5 94t171 34.5t171 -34.5t139.5 -94
t94 -139.5t34.5 -171v0z" />
    <glyph glyph-name="uniF0D8" unicode="&#xf0d8;" horiz-adv-x="585" 
d="M585 256q0 -15 -10.5 -26t-25.5 -11h-512q-15 0 -26 11t-11 26q0 7 3 14t8 12l256 256q5 5 11.5 8t14.5 3q7 0 13.5 -3t11.5 -8l256 -256q5 -5 8 -12t3 -14z" />
    <glyph glyph-name="uniF0E0" unicode="&#xf0e0;" 
d="M1024 545v-454q0 -37 -27 -64t-64 -27h-842q-37 0 -64 27t-27 64v454q13 -14 27.5 -26.5t30.5 -23.5q35 -24 71 -48t71.5 -48.5t71 -49.5t70.5 -51q36 -26 79.5 -52.5t89.5 -26.5h2q46 0 89.5 26.5t79.5 52.5q35 26 70.5 50.5t71 49.5t71.5 49l72 48q15 11 29.5 23.5
t27.5 26.5v0zM1024 713q0 -48 -30 -89t-68 -67q-33 -24 -66.5 -47l-67 -46t-67 -46.5t-66.5 -46.5q-28 -19 -70 -48.5t-76 -29.5h-2q-34 0 -76 29.5t-70 48.5q-33 23 -66.5 46.5t-67 46.5l-67 46t-66.5 47q-30 20 -64 62.5t-34 81.5q0 42 23 73t68 31h842q37 0 64 -27
t27 -65v0z" />
    <glyph glyph-name="uniF0E1" unicode="&#xf0e1;" horiz-adv-x="878" 
d="M199 594v-567h-188v567h188v0zM211 769q1 -41 -28 -69.5t-78 -28.5v0h-1q-48 0 -76 28.5t-28 69.5t29 69t77 28q49 0 77 -28t28 -69zM878 352v-325h-188v303q0 57 -22.5 92.5t-73.5 35.5q-39 0 -62.5 -21.5t-33.5 -46.5q-4 -10 -5.5 -22t-1.5 -25v-316h-188
q1 193 1 305.5v170.5t-0.5 74.5l-0.5 16.5h188v-83h-1q19 30 57 63t114 33q47 0 86.5 -15.5t68.5 -47t45.5 -79.5t16.5 -113v0z" />
    <glyph glyph-name="uniF16A" unicode="&#xf16a;" 
d="M406 306l277 143l-277 145v-288v0zM512 799q81 0 147 -1.5t113 -3.5t72.5 -3.5l25.5 -1.5q15 -2 44.5 -7.5t58.5 -36.5l17 -24t24 -78q8 -62 9 -113.5l1 -51.5v-78l-1 -52t-9 -114q-7 -52 -24 -76.5l-17 -24.5q-29 -31 -58.5 -36.5t-44.5 -6.5l-25.5 -2t-72.5 -4
t-113 -3.5t-147 -1.5v0q-200 2 -274 6l-74 4q-17 3 -50.5 8t-62.5 36l-17 24.5t-24 76.5q-8 62 -9 114l-1 52v78l1 51.5t9 113.5q7 54 24 78l17 24q29 31 58.5 36.5t44.5 7.5l25.5 1.5t72.5 3.5t113 3.5t147 1.5v0v0z" />
    <glyph glyph-name="uniF16D" unicode="&#xf16d;" horiz-adv-x="878" 
d="M585 439q0 60 -43 103t-103 43q-61 0 -103.5 -43t-42.5 -103q0 -61 42.5 -103.5t103.5 -42.5q60 0 103 42.5t43 103.5zM664 439q0 -47 -17.5 -88t-48 -71.5t-71.5 -48t-88 -17.5t-88 17.5t-71.5 48t-48 71.5t-17.5 88t17.5 88t48 71.5t71.5 48t88 17.5t88 -17.5t71.5 -48
t48 -71.5t17.5 -88zM726 673q0 -22 -15.5 -37t-37.5 -15t-37 15t-15 37t15 37.5t37 15.5t37.5 -15.5t15.5 -37.5v0zM439 799q-24 0 -59.5 0.5t-72.5 -1t-71 -5t-56 -12.5q-15 -6 -27 -13.5t-23 -19.5q-12 -12 -19.5 -23.5t-13.5 -26.5q-9 -22 -13 -56t-5 -71t-0.5 -72.5
t0.5 -59.5t-0.5 -59.5t0.5 -72.5t5 -71t13 -56q6 -15 13.5 -27t19.5 -23q11 -12 23 -19.5t27 -13.5q22 -9 56 -13t71 -5t72.5 -0.5t59.5 0.5t59.5 -0.5t72.5 0.5t71 5t56 13q15 6 26.5 13.5t23.5 19.5q12 11 19.5 23t13.5 27q9 22 12.5 56t5 71t1 72.5t-0.5 59.5t0.5 59.5
t-1 72.5t-5 71t-12.5 56q-6 15 -13.5 26.5t-19.5 23.5t-23.5 19.5t-26.5 13.5q-22 9 -56 12.5t-71 5t-72.5 1t-59.5 -0.5v0zM878 439q0 -46 -0.5 -91t-2.5 -90q-3 -53 -17.5 -99.5t-53.5 -84.5q-39 -39 -85 -54t-99 -17q-45 -3 -90.5 -3h-90.5h-91t-90 3q-53 2 -99.5 17
t-84.5 54q-39 38 -54 84.5t-17 99.5q-3 45 -3 90v91v90.5t3 90.5q2 53 17 99t54 85q38 39 84.5 53.5t99.5 17.5q45 2 90 2.5t91 0.5q45 0 90.5 -0.5t90.5 -2.5q53 -3 99 -17.5t85 -53.5t53.5 -85t17.5 -99q2 -45 2.5 -90.5t0.5 -90.5z" />
    <glyph glyph-name="uniF17D" unicode="&#xf17d;" horiz-adv-x="878" 
d="M585 94q-2 12 -7.5 39t-15 64t-23.5 83.5t-34 97.5h-1h-1l-36 -14.5t-84.5 -44t-97.5 -73.5t-76 -103q-3 3 -6 5l-3 2q49 -40 110 -63t129 -23q39 0 75.5 8t70.5 22v0zM479 441q-6 15 -14 31l-16 32q-72 -22 -140.5 -33t-122 -15.5t-86.5 -4.5h-35q-1 -3 -1 -6v-6
q0 -72 25.5 -136.5t70.5 -113.5v0q38 68 90.5 115t100 76.5t81 42.5l33.5 13q3 1 7 2t7 3zM418 562q-49 86 -92 148.5t-47 67.5q-39 -19 -73 -45.5t-60.5 -60.5t-45.5 -73t-28 -83q4 0 33 0.5t76 4.5t108.5 13.5t128.5 27.5v0zM809 379q-6 2 -74.5 16.5t-159.5 0.5
q37 -102 54 -176.5t20 -91.5q63 42 105 107.5t55 143.5v0zM349 803h-0.5t-0.5 -1l0.5 0.5zM686 720q-49 44 -112.5 69t-134.5 25q-23 0 -45 -3t-44 -8q5 -6 49 -68t92 -150q106 39 150 86.5t45 48.5zM814 443q-1 66 -23.5 126t-61.5 108q-1 -1 -50 -52t-160 -96
q7 -14 13.5 -27.5t12.5 -27.5q2 -4 3.5 -9t4.5 -10q48 6 94 5t82.5 -4.5t59.5 -8t25 -4.5v0zM878 439q0 -91 -34.5 -171t-94 -139.5t-139.5 -94t-171 -34.5t-171 34.5t-139.5 94t-94 139.5t-34.5 171t34.5 171t94 139.5t139.5 94t171 34.5t171 -34.5t139.5 -94t94 -139.5
t34.5 -171z" />
    <glyph glyph-name="uniF18A" unicode="&#xf18a;" horiz-adv-x="1039" 
d="M386 217q12 20 6 40t-26 28q-19 8 -41.5 0.5t-34.5 -26.5t-7 -39t24 -29q20 -9 43 -1.5t36 27.5v0zM439 286q5 8 2.5 15.5t-10.5 10.5q-7 3 -15.5 -0.5t-12.5 -10.5q-4 -8 -2 -15t9 -11q8 -3 16.5 0.5t12.5 10.5v0zM539 225q-26 -58 -90.5 -85.5t-127.5 -6.5
q-62 19 -85 72t4 107q27 53 86.5 79.5t120.5 10.5q63 -16 90.5 -67.5t1.5 -109.5v0zM717 317q-4 41 -31.5 75.5t-72 58t-102 33.5t-121.5 4q-63 -6 -117.5 -27.5t-93.5 -53t-59.5 -70.5t-16.5 -81q5 -42 32.5 -76t72 -57.5t102 -34t120.5 -3.5q64 6 118.5 27.5t93 53
t59 70.5t16.5 81zM893 314q0 -48 -33 -99.5t-94 -93.5t-146.5 -69.5t-189.5 -27.5q-80 0 -157 18.5t-137.5 54t-98 86t-37.5 114.5q0 33 10.5 68.5t30 72t47.5 73.5t65 73q48 48 98.5 82.5t96 52.5t82.5 17.5t59 -21.5q18 -19 20.5 -50t-9.5 -70q-6 -19 9.5 -15t15.5 3
q78 33 140.5 34t87.5 -35q13 -19 12.5 -45t-12.5 -56q-6 -15 -0.5 -19t16.5 -8q44 -13 84 -47t40 -93v0zM851 671q24 -27 31 -62t-4 -67q-4 -14 -16.5 -20t-25.5 -2t-19.5 16.5t-2.5 25.5v0q5 17 2 33.5t-15 30.5q-12 13 -28.5 18t-33.5 2v0q-13 -3 -25 4.5t-15 20.5
q-3 14 4.5 25.5t21.5 14.5q34 8 67.5 -2.5t58.5 -37.5v0zM954 764q51 -56 64.5 -127t-7.5 -138v0q-5 -16 -19.5 -23t-29.5 -2q-16 5 -23.5 19t-2.5 30v0q15 47 5.5 98t-45.5 90q-36 40 -85.5 55t-97.5 5q-16 -4 -30 5t-17 25q-4 16 5 29.5t25 16.5v0q69 15 138.5 -6
t119.5 -77v0z" />
    <glyph glyph-name="uniF194" unicode="&#xf194;" horiz-adv-x="878" 
d="M738 586q3 62 -20 93.5t-72 33.5q-66 2 -110.5 -35t-67.5 -114q12 5 23.5 8t23.5 3q24 0 34.5 -14t7.5 -41q-1 -16 -11.5 -40t-30.5 -55q-20 -32 -35 -47.5t-25 -15.5q-13 0 -24.5 24t-22.5 72q-3 15 -9.5 51t-16.5 95q-8 54 -31 79.5t-60 21.5q-16 -2 -39.5 -16
t-54.5 -41q-23 -20 -46 -41t-46 -41l29 -39q22 15 34.5 22.5t15.5 7.5q16 0 31.5 -25.5t29.5 -76.5l26 -94l26 -94q19 -51 42 -76.5t51 -25.5q45 0 99.5 42t119.5 126q63 80 95.5 143.5t33.5 109.5v0zM878 713v-548q0 -69 -48.5 -117t-116.5 -48h-548q-69 0 -117 48t-48 117
v548q0 68 48 116.5t117 48.5h548q68 0 116.5 -48.5t48.5 -116.5z" />
    <glyph glyph-name="uniF1A0" unicode="&#xf1a0;" horiz-adv-x="860" 
d="M439 502h414q3 -17 5 -34.5t2 -38.5q0 -94 -30 -173t-85.5 -135.5t-133 -88.5t-172.5 -32q-91 0 -171 34.5t-139.5 94t-94 139.5t-34.5 171t34.5 171t94 139.5t139.5 94t171 34.5q44 0 85 -8t78 -23t69.5 -36t61.5 -48l-119 -115q-25 24 -68 46t-107 22q-56 0 -105.5 -22
t-86.5 -59.5t-58.5 -88t-21.5 -107.5q0 -58 21.5 -108.5t58.5 -88t86.5 -59t105.5 -21.5q65 0 110.5 20.5t75 49.5t44.5 62t19 57h-249v151v0z" />
    <glyph glyph-name="uniF1B4" unicode="&#xf1b4;" horiz-adv-x="1170" 
d="M1056 757h-292v-71h292v71zM912 514q-51 0 -83 -30t-36 -82h233q-4 52 -32 82t-82 30zM921 179q33 0 68 17.5t45 50.5h127q-30 -89 -90.5 -132t-153.5 -43q-62 0 -111.5 20t-84 56t-53 86.5t-18.5 111.5q0 58 19 108.5t54.5 87.5t84.5 58.5t109 21.5q61 0 108 -22.5
t79.5 -61t49 -90t16.5 -109.5v-14t-1 -13h-376q0 -63 32.5 -98t95.5 -35zM158 208h169q49 0 83.5 20.5t34.5 74.5q0 56 -31 79.5t-83 23.5h-173v-198v0zM158 515h161q42 0 69 20t27 66q0 49 -32.5 65.5t-75.5 16.5h-149v-168v0zM0 806h339q93 0 162 -35.5t69 -143.5
q0 -54 -25 -90.5t-74 -59.5q67 -19 99.5 -66.5t32.5 -115.5q0 -55 -21.5 -94.5t-56.5 -65t-81 -37.5t-95 -12h-349v720v0z" />
    <glyph glyph-name="uniF1CB" unicode="&#xf1cb;" 
d="M123 283l345 -230v205l-191 128zM88 365l110 74l-110 74v-148v0zM556 53l345 230l-154 103l-191 -128v-205v0zM512 335l155 104l-155 104l-155 -104zM277 492l191 127v206l-345 -230zM826 439l110 -74v148zM747 492l154 103l-345 230v-206zM1024 595v-312q0 -11 -5 -21
t-14 -16l-468 -312q-6 -3 -12.5 -5t-12.5 -2t-12.5 2t-12.5 5l-468 312q-9 6 -14 16t-5 21v312q0 11 5 20.5t14 15.5l468 312q6 4 12.5 6t12.5 2t12.5 -2t12.5 -6l468 -312q9 -6 14 -15.5t5 -20.5z" />
    <glyph glyph-name="uniF1CC" unicode="&#xf1cc;" horiz-adv-x="1170" 
d="M1029 510q62 -26 101.5 -82.5t39.5 -127.5q0 -47 -18 -88.5t-49.5 -72t-73 -48.5t-89.5 -18q-3 0 -6.5 0.5t-6.5 0.5h-695q-48 3 -90.5 21.5t-74 49.5t-49.5 72t-18 89q0 64 32 116.5t83 83.5q-3 11 -4.5 22.5t-1.5 24.5q0 65 46.5 111.5t113.5 46.5q28 0 53 -9t45 -24
q21 43 53.5 79t73 62t88 40t99.5 14q72 0 135.5 -27t111 -73.5t74.5 -109t27 -133.5v-10v-10v0zM267 358q0 -73 49.5 -112t117.5 -39q42 0 74.5 13.5t62.5 42.5q-12 16 -25.5 31t-26.5 31q-17 -18 -37 -28t-45 -10q-30 0 -52.5 19t-22.5 51q0 31 22 50t52 19
q47 0 79.5 -34.5t66.5 -75.5t77.5 -75.5t111.5 -34.5q67 0 116 40t49 110q0 71 -49.5 110.5t-116.5 39.5q-42 0 -75 -13t-63 -42q14 -15 27 -30.5t26 -31.5q17 17 37 27t44 10q29 0 52.5 -18.5t23.5 -48.5q0 -33 -21.5 -52.5t-53.5 -19.5q-46 0 -78.5 34t-66.5 75.5
t-77.5 75.5t-110.5 34q-66 0 -116.5 -39t-50.5 -109v0z" />
    <glyph glyph-name="uniF1D7" unicode="&#xf1d7;" horiz-adv-x="1170" 
d="M331 687q0 24 -14 38t-38 14q-23 0 -42.5 -14t-19.5 -38q0 -23 19.5 -37t42.5 -14q24 0 38 14t14 37zM756 398q0 15 -14 28t-38 13q-15 0 -28 -13t-13 -28q0 -16 13 -29t28 -13q24 0 38 13t14 29zM621 687q0 24 -14 38t-37 14q-24 0 -43.5 -14t-19.5 -38q0 -23 19.5 -37
t43.5 -14q23 0 37 14t14 37zM984 398q0 15 -14.5 28t-37.5 13q-15 0 -28 -13t-13 -28q0 -16 13 -29t28 -13q23 0 37.5 13t14.5 29zM832 625q-10 1 -20 1.5t-20 0.5q-74 0 -138 -26t-111.5 -70.5t-75 -104t-27.5 -127.5q0 -22 3.5 -44t9.5 -42q-10 -1 -19.5 -1.5t-19.5 -0.5
q-39 0 -72.5 6.5t-72.5 13.5l-144 -72l41 124q-39 28 -70 59t-52 66t-32.5 74t-11.5 81q0 74 32.5 138.5t89 112t132 74.5t160.5 27q77 0 146.5 -22t125.5 -60.5t94.5 -92t51.5 -115.5v0zM1170 304q0 -70 -41 -131t-104 -107l32 -104l-114 63q-31 -8 -62.5 -15t-62.5 -7
q-74 0 -138 24t-111.5 64.5t-75 95.5t-27.5 117t27.5 117t75 95.5t111.5 64.5t138 24q70 0 134 -24t112.5 -64.5t77 -95.5t28.5 -117v0z" />
    <glyph glyph-name="uniF23A" unicode="&#xf23a;" 
d="M341 710v-670q0 -13 -6.5 -23.5t-21.5 -10.5q-5 0 -9.5 1t-9.5 3l-265 133q-12 6 -20.5 19.5t-8.5 26.5v652q0 10 5.5 18.5t16.5 8.5q7 0 13 -3l12 -6l292 -146q1 0 1.5 -1t0.5 -2v0zM378 653l305 -495l-305 152v343zM1024 642v-602q0 -14 -8 -23t-22 -9q-7 0 -14 2
t-13 5l-252 126zM1022 711q0 -1 -46.5 -77t-104 -169.5t-108 -176t-59.5 -95.5l-223 362l185 301q5 8 13 12t17 4q4 0 7.5 -1t7.5 -2l309 -155q1 0 1.5 -1t0.5 -2v0z" />
    <glyph glyph-name="uniF27A" unicode="&#xf27a;" 
d="M366 439q0 30 -21.5 51.5t-51.5 21.5q-31 0 -52.5 -21.5t-21.5 -51.5q0 -31 21.5 -52t52.5 -21q30 0 51.5 21t21.5 52v0zM585 439q0 30 -21.5 51.5t-51.5 21.5t-51.5 -21.5t-21.5 -51.5q0 -31 21.5 -52t51.5 -21t51.5 21t21.5 52zM805 439q0 30 -21.5 51.5t-52.5 21.5
q-30 0 -51.5 -21.5t-21.5 -51.5q0 -31 21.5 -52t51.5 -21q31 0 52.5 21t21.5 52zM1024 439q0 -76 -40 -142.5t-109.5 -116t-163 -78.5t-199.5 -29q-31 0 -61.5 2.5t-59.5 7.5q-48 -48 -111 -81.5t-137 -48.5q-12 -3 -24 -5t-25 -3q-7 -1 -13 3t-7 11v0q-2 7 2 11.5t9 9.5
q27 25 55 58t39 123q-41 25 -74 56t-56.5 66.5t-36 74.5t-12.5 81q0 76 40 142.5t109.5 116t163 78.5t199.5 29t199.5 -29t163 -78.5t109.5 -116t40 -142.5v0z" />
    <glyph glyph-name="uniF2C4" unicode="&#xf2c4;" horiz-adv-x="1027" 
d="M717 501q0 90 -14.5 157.5t-44.5 112.5t-77 68t-112 23t-111.5 -23t-76.5 -68t-44 -112.5t-14 -157.5q0 -89 14 -156t44 -112t76.5 -67.5t111.5 -22.5q20 0 38.5 2t35.5 8v0q-26 52 -61.5 96t-96.5 44q-11 0 -22.5 -2t-22.5 -8l-28 56q25 22 65 37t93 15
q82 0 128.5 -34.5t80.5 -85.5q19 43 28.5 101t9.5 129v0zM940 140h67q1 -15 -4 -50.5t-26 -71.5t-62.5 -63.5t-111.5 -27.5q-84 0 -133.5 42.5t-83.5 99.5v0q-28 -8 -57.5 -11.5t-59.5 -3.5q-86 0 -167.5 32.5t-144.5 91.5t-101.5 141.5t-38.5 181.5q0 100 38.5 183
t101.5 142.5t144.5 92t167.5 32.5q87 0 168.5 -32.5t145 -91.5t101.5 -142t38 -184q0 -56 -12.5 -106.5t-35 -95t-54 -81.5t-69.5 -67q25 -36 51.5 -58.5t62.5 -22.5q38 0 55 23.5t20 46.5v0z" />
  </font>
</defs>
</svg>
