<svg width="2143" height="737" xmlns="http://www.w3.org/2000/svg"><defs><linearGradient x1="-199.97%" y1="276.802%" x2="84.489%" y2="45.52%" id="a"><stop stop-color="#FFF" stop-opacity=".64" offset="0%"/><stop stop-color="#FFF" stop-opacity="0" offset="100%"/></linearGradient><linearGradient x1="50%" y1="0%" x2="50%" y2="100%" id="b"><stop stop-color="#3B82F6" stop-opacity="0" offset="0%"/><stop stop-color="#3B82F6" offset="100%"/></linearGradient><linearGradient x1="78.435%" y1="20.1%" x2="39.176%" y2="96.998%" id="d"><stop stop-color="#2563EB" offset="0%"/><stop stop-color="#F472B6" offset="34.045%"/><stop stop-color="#C084FC" offset="50.898%"/><stop stop-color="#376DF9" stop-opacity="0" offset="100%"/></linearGradient><linearGradient x1="50%" y1="0%" x2="50%" y2="100%" id="e"><stop stop-color="#60A5FA" stop-opacity="0" offset="0%"/><stop stop-color="#F472B6" offset="100%"/></linearGradient><linearGradient x1="-112.893%" y1="162.269%" x2="55.594%" y2="40.631%" id="g"><stop stop-color="#FFF" stop-opacity=".16" offset="0%"/><stop stop-color="#FFF" stop-opacity="0" offset="100%"/></linearGradient><linearGradient x1="50%" y1="0%" x2="50%" y2="100%" id="h"><stop stop-color="#3B82F6" stop-opacity="0" offset="0%"/><stop stop-color="#3B82F6" stop-opacity=".711" offset="70.928%"/><stop stop-color="#DBEAFE" offset="100%"/></linearGradient><filter x="-37.5%" y="-37.5%" width="175%" height="175%" filterUnits="objectBoundingBox" id="c"><feGaussianBlur stdDeviation="50" in="SourceGraphic"/></filter><filter x="-37.5%" y="-37.5%" width="175%" height="175%" filterUnits="objectBoundingBox" id="f"><feGaussianBlur stdDeviation="50" in="SourceGraphic"/></filter><filter x="-17.1%" y="-21.2%" width="134.3%" height="142.4%" filterUnits="objectBoundingBox" id="i"><feGaussianBlur stdDeviation="24" in="SourceGraphic"/></filter></defs><g fill="none" fill-rule="evenodd"><g transform="translate(1560.104 397.343)" stroke="url(#a)" stroke-width="1.5"><path d="M83.114 2.06c6.242 1.974 13.08 5.88 20.218 11.317 7.136 5.438 14.632 12.632 21.91 20.386 7.278 7.754 14.33 16.05 20.61 23.81 6.28 7.76 11.78 14.958 16.118 21.028 10.454 14.626 14.088 22.122 8.664 26.676-3.004 2.524-7.808 4.704-14.264 7.02-6.454 2.316-14.55 4.774-23.52 8.498-6.254 2.594-12.332 5.71-18.04 9.466-5.708 3.758-11.044 8.168-16.084 13.012-6.494 6.236-12.42 13.166-18.626 19.242-6.206 6.078-12.74 11.218-20.724 13.452-6.178 1.73-12.714 1.996-19.772-3.564-7.056-5.558-13.41-14.076-18.942-23.104-6.07-9.906-11.098-20.336-14.7-29.864C2.36 109.907.188 101.233.016 92.881-.21 81.841 1.954 72.02 6.278 61.805c4.324-10.214 10.82-20.85 18.826-31.006 8.04-10.194 17.536-19.772 27.252-25.546C62.072-.52 71.998-1.457 83.114 2.06Z"/><path d="M86.698 3.945c6.276 2.276 13.146 6.456 20.308 12.11 7.164 5.655 14.674 12.991 21.944 20.758 7.27 7.77 14.296 15.968 20.54 23.557 6.244 7.588 11.696 14.537 15.986 20.342 10.242 13.853 13.822 20.708 8.456 24.971-2.98 2.368-7.766 4.408-14.248 6.571-6.482 2.164-14.656 4.441-23.78 7.895-6.4 2.422-12.636 5.338-18.492 8.895-5.856 3.555-11.324 7.763-16.458 12.441-6.64 6.044-12.64 12.856-18.802 18.942-6.162 6.086-12.534 11.37-20.214 13.876-5.944 1.945-12.303.987-18.928-2.642-6.624-3.628-13.212-12.499-18.696-21.329-6.032-9.712-11.012-20.166-14.564-29.855-3.552-9.685-5.67-18.643-5.8-27.307-.17-11.506 2.038-21.733 6.378-32.206 4.34-10.475 10.824-21.237 18.766-31.302C37.066 19.56 46.444 10.29 55.96 5.103 65.48-.086 75.542-.103 86.698 3.945Z"/><path d="M90.294 6.006c6.309 2.556 13.208 6.983 20.395 12.83 7.187 5.846 14.708 13.284 21.967 21.034 7.26 7.748 14.258 15.827 20.466 23.224 6.206 7.393 11.614 14.08 15.86 19.61 10.039 13.07 13.584 19.31 8.292 23.314-2.946 2.228-7.706 4.154-14.208 6.186-6.501 2.033-14.75 4.157-24.028 7.356-6.55 2.258-12.948 4.98-18.956 8.334-6.008 3.356-11.618 7.356-16.855 11.858-6.8 5.842-12.893 12.514-19.031 18.588-6.137 6.074-12.37 11.472-19.767 14.228-5.73 2.136-11.81 1.498-18.141-1.792-6.332-3.291-12.895-10.936-18.331-19.537-5.996-9.481-10.931-19.93-14.433-29.748-3.501-9.817-5.57-19.044-5.658-28.004-.115-11.96 2.135-22.577 6.487-33.3 4.35-10.721 10.819-21.591 18.687-31.541C40.939 18.66 50.187 9.73 59.494 5.168c9.309-4.564 19.607-3.698 30.8.838Z"/><path d="M93.9 8.224c6.313 2.748 13.296 7.464 20.476 13.477 7.226 6.05 14.736 13.51 21.982 21.213 7.246 7.705 14.218 15.636 20.39 22.816 6.17 7.18 11.534 13.586 15.74 18.832 9.848 12.28 13.374 17.93 8.172 21.71-2.903 2.108-7.626 3.94-14.142 5.868-6.516 1.928-14.832 3.92-24.263 6.882-6.7 2.106-13.265 4.638-19.43 7.792-6.167 3.154-11.929 6.946-17.28 11.264-6.979 5.626-13.179 12.144-19.31 18.184-6.133 6.042-12.247 11.528-19.389 14.506-5.532 2.308-11.346 1.972-17.4-.988-6.054-2.962-12.472-9.422-17.864-17.762-5.96-9.218-10.85-19.624-14.306-29.546-3.456-9.922-5.474-19.392-5.522-28.634-.042-8.261.954-15.866 2.922-23.306 1.968-7.438 4.912-14.728 8.686-21.926a133.795 133.795 0 0 1 13.572-20.844C44.75 17.916 53.63 8.942 63.018 5.788 72.408 2.636 82.842 3.41 93.9 8.224Z"/><path d="M97.524 10.611c6.336 2.931 13.306 7.845 20.548 14.044 7.244 6.2 14.75 13.658 21.982 21.288 7.232 7.63 14.176 15.391 20.312 22.334 6.136 6.946 11.46 13.06 15.63 18.013 9.666 11.483 13.168 16.462 7.97 20.006-2.906 1.981-7.464 3.971-13.912 5.857-6.45 1.887-14.906 3.646-24.488 6.39-6.854 1.96-13.588 4.308-19.918 7.264a98.944 98.944 0 0 0-17.727 10.664c-7.168 5.403-13.493 11.746-19.639 17.733-6.148 5.987-12.164 11.54-19.072 14.714-5.352 2.462-10.922 2.41-16.712-.233-5.79-2.639-11.95-7.977-17.3-16.023-5.928-8.916-10.776-19.244-14.186-29.244-3.41-9.998-5.38-19.693-5.39-29.199-.01-8.542 1.016-16.404 3-24.047 1.984-7.645 4.932-15.084 8.692-22.353 3.76-7.27 8.334-14.367 13.466-20.8 7.725-9.678 16.378-17.748 25.78-20.353 9.4-2.605 19.76-1.235 30.964 3.945Z"/><path d="M101.158 13.147c6.364 3.141 13.358 8.23 20.612 14.517 7.254 6.286 14.76 13.741 21.976 21.27 7.216 7.527 14.13 15.091 20.232 21.781 6.102 6.692 11.39 12.496 15.526 17.153 9.5 10.687 12.736 14.785 7.717 18.431-2.815 2.042-7.247 4.094-13.601 5.972-6.354 1.878-14.922 3.302-24.654 5.844-7.008 1.83-13.916 4.002-20.416 6.762s-12.586 6.123-18.196 10.058c-7.372 5.164-13.84 11.322-20.02 17.234-6.18 5.913-12.12 11.508-18.82 14.854-5.192 2.597-10.534 2.811-16.074.478-5.54-2.332-11.338-6.62-16.646-14.342-5.898-8.577-10.706-18.794-14.072-28.838-3.366-10.044-5.29-19.938-5.264-29.69.022-8.806 1.074-16.918 3.072-24.754 1.998-7.837 4.948-15.416 8.69-22.744 3.742-7.328 8.28-14.406 13.348-20.708C52.196 16.941 60.694 9.866 70.11 7.781c9.414-2.084 19.817-.176 31.048 5.366Z"/><path d="M104.802 15.8c8.52 4.437 18.176 12.318 27.99 21.572s19.732 19.738 28.474 28.98c8.741 9.242 16.273 17.142 21.756 22.944 9.345 9.892 12.282 13.319 7.458 17.076-2.71 2.11-7.01 4.232-13.26 6.112-6.25 1.879-14.87 2.9-24.755 5.257-7.163 1.71-14.247 3.715-20.924 6.283-6.674 2.568-12.933 5.714-18.687 9.448-7.59 4.922-14.218 10.874-20.45 16.694-6.233 5.82-12.117 11.434-18.63 14.928-5.048 2.71-10.18 3.174-15.487 1.142-5.305-2.032-10.769-6.544-15.922-12.808-5.738-6.98-10.63-18.192-13.958-28.25-3.325-10.06-5.206-20.128-5.146-30.108.055-9.056 1.128-17.404 3.14-25.424 2.008-8.018 4.957-15.724 8.678-23.096 3.723-7.374 8.216-14.412 13.216-20.568 7.525-9.262 15.94-15.28 25.372-16.866 9.433-1.587 19.874.818 31.135 6.684Z"/><path d="M108.448 18.552c8.554 4.658 18.232 12.676 28.044 21.888 9.812 9.214 19.702 19.478 28.406 28.38a1802.942 1802.942 0 0 0 21.644 21.742c9.206 9.1 11.81 12.068 7.194 15.95-2.598 2.186-6.756 4.382-12.892 6.276-6.136 1.894-14.333 3.362-24.634 4.922-7.514 1.14-14.732 3.162-21.586 5.54-6.854 2.378-13.294 5.31-19.2 8.836-7.822 4.668-14.626 10.402-20.928 16.112-6.302 5.709-12.152 11.32-18.5 14.94-9.844 5.616-20.32 1.81-30.184-10.12-5.508-6.662-10.45-16.998-13.738-27.042-3.288-10.044-5.124-20.26-5.036-30.448.082-9.29 1.18-17.862 3.198-26.048s4.962-16.006 8.658-23.408c3.696-7.402 8.146-14.388 13.07-20.378 7.41-9.012 15.816-13.926 25.27-15.038 9.45-1.118 19.932 1.752 31.214 7.896Z"/><path d="M112.1 21.39c8.584 4.846 18.281 12.962 28.088 22.098 9.806 9.136 19.668 19.144 28.336 27.68a829.941 829.941 0 0 0 21.548 20.49c9.078 8.316 11.316 11.038 6.925 15.054-2.479 2.268-6.49 4.546-12.5 6.462-6.013 1.916-14.11 3.35-24.435 4.696-7.582.988-15.22 2.49-22.26 4.684-7.04 2.194-13.666 4.91-19.734 8.228-8.069 4.41-15.063 9.912-21.454 15.49-6.39 5.58-12.224 11.166-18.43 14.888-9.626 5.776-19.606 2.694-29.044-8.63-5.284-6.34-10.179-15.822-13.429-25.818-3.252-9.998-5.049-20.334-4.93-30.706.107-9.506 1.224-18.286 3.25-26.628a114.098 114.098 0 0 1 8.627-23.676c3.666-7.416 8.066-14.33 12.91-20.136 7.288-8.73 15.763-12.52 25.236-13.188 9.474-.666 19.991 2.63 31.296 9.012Z"/><path d="M115.754 24.298c8.614 5.004 18.326 13.182 28.126 22.202 9.8 9.02 19.63 18.737 28.265 26.88 8.633 8.142 16.046 14.634 21.465 19.193 8.968 7.54 10.804 10.235 6.648 14.397-2.352 2.355-6.208 4.72-12.088 6.666-5.88 1.946-13.87 3.362-24.197 4.516-7.637.854-15.664 1.77-22.893 3.788-7.23 2.016-14.048 4.516-20.286 7.622-8.325 4.144-15.527 9.4-22.023 14.834-6.496 5.434-12.334 10.973-18.418 14.776-9.441 5.899-18.96 3.506-27.99-7.202-5.067-6.012-9.817-14.674-13.035-24.59s-4.98-20.344-4.836-30.88c.132-9.702 1.269-18.677 3.296-27.156a115.215 115.215 0 0 1 8.588-23.9c3.635-7.413 7.906-14.866 12.754-19.638 7.292-7.176 15.763-11.282 25.257-11.53 9.489-.242 20.044 3.444 31.367 10.022Z"/><path d="M119.408 27.266c8.642 5.134 18.366 13.332 28.158 22.202 9.79 8.87 19.59 18.262 28.192 25.986s15.984 13.716 21.402 17.854c8.87 6.776 10.27 9.662 6.362 13.979-2.218 2.447-5.914 4.9-11.656 6.885-5.744 1.984-13.614 3.392-23.93 4.376-7.68.734-16.049 1.014-23.472 2.858-7.422 1.844-14.44 4.13-20.856 7.022-8.596 3.874-16.022 8.872-22.642 14.146-6.62 5.272-12.48 10.748-18.464 14.606-9.288 5.992-18.382 4.25-27.016-5.84-4.86-5.68-9.382-13.562-12.57-23.364-3.188-9.802-4.914-20.294-4.748-30.966.154-9.876 1.304-19.028 3.332-27.63 2.028-8.602 4.938-16.676 8.536-24.07 3.597-7.394 7.838-14.014 12.67-18.578 7.268-6.86 15.746-10.538 25.263-10.388 9.511.146 20.099 4.186 31.439 10.922Z"/><path d="M123.062 30.273c8.668 5.23 18.401 13.416 28.182 22.1 9.78 8.68 19.547 17.713 28.12 24.995 8.572 7.281 16.544 13.575 21.274 16.357 7.663 4.51 9.798 9.45 6.146 13.924-2.078 2.546-5.609 5.093-11.208 7.124-5.6 2.03-13.344 3.438-23.632 4.274-7.712.628-15.872 1.1-23.92 2.028-8.046.928-14.914 3.631-21.517 6.306-8.88 3.598-16.544 8.33-23.303 13.424-6.76 5.094-12.664 10.487-18.568 14.382-9.166 6.054-17.872 4.93-26.128-4.544-4.66-5.348-8.967-13.086-12.05-22.286-3.084-9.2-4.84-20.052-4.654-30.836.172-10.027 1.334-19.34 3.36-28.044 2.026-8.706 4.918-16.832 8.472-24.187 3.554-7.357 7.81-13.093 12.632-17.45 7.25-6.548 15.74-9.813 25.28-9.295 9.54.52 20.16 4.876 31.514 11.728Z"/><path d="M126.716 33.313c8.692 5.298 18.435 13.433 28.2 21.893 9.767 8.46 19.502 17.097 28.048 23.914s16.307 11.792 20.89 14.63c7.352 4.55 9.58 9.677 6.194 14.315-1.93 2.646-5.296 5.29-10.743 7.374-5.45 2.082-13.061 3.5-23.31 4.208-7.73.534-15.961.85-24.134 1.532-8.174.684-15.563 2.79-22.357 5.252-9.176 3.32-17.092 7.773-24.01 12.676-6.918 4.902-12.882 10.188-18.725 14.104-9.078 6.082-17.43 5.54-25.326-3.32-4.47-5.014-8.594-12.437-11.548-21.41-2.954-8.972-4.697-19.569-4.494-30.436.187-10.158 1.36-19.608 3.379-28.4 2.02-8.792 4.857-17.27 8.42-24.02 3.565-6.75 7.807-12.348 12.622-16.498 7.24-6.24 15.747-9.106 25.313-8.244 9.56.863 20.216 5.5 31.58 12.43Z"/><path d="M130.366 36.365c8.714 5.337 18.46 13.381 28.212 21.582 9.752 8.202 19.456 16.414 27.98 22.746 8.524 6.33 15.998 10.206 20.456 13.11 7.074 4.6 9.412 9.915 6.298 14.722-1.78 2.75-4.972 5.494-10.268 7.632-5.296 2.141-12.768 3.578-22.958 4.18-7.744.453-16.028.627-24.316 1.085-8.288.458-16.178 1.908-23.172 4.151a99.857 99.857 0 0 0-24.758 11.9c-7.09 4.697-13.134 9.863-18.94 13.777-9.018 6.08-17.048 6.084-24.606-2.166-4.29-4.683-8.234-11.782-11.058-20.51-2.824-8.729-4.49-19.087-4.278-30.01.2-10.26 1.378-19.829 3.388-28.686 2.01-8.859 4.873-16.68 8.42-23.309 3.548-6.628 7.78-12.052 12.596-15.998 7.238-5.932 15.764-8.416 25.354-7.235 9.592 1.18 20.274 6.065 31.65 13.03Z"/><path d="M134.014 39.42c8.735 5.342 18.481 13.26 28.22 21.17 9.736 7.91 19.41 15.666 27.916 21.488 8.506 5.82 15.628 8.827 19.977 11.8 6.83 4.666 9.286 10.162 6.452 15.144-3.25 5.71-12.124 11.062-32.368 12.078-7.746.389-16.073.436-24.46.688-8.385.25-16.754.989-23.954 3.018-9.8 2.76-18.267 6.626-25.55 11.104-7.282 4.478-13.42 9.504-19.206 13.398-8.989 6.05-16.735 6.562-23.973-1.084-4.12-4.352-7.892-11.12-10.584-19.59-2.693-8.47-4.269-18.607-4.019-29.45.236-10.24 1.412-19.905 3.431-28.6 2.017-8.696 4.866-16.433 8.408-22.93 3.54-6.494 7.768-11.744 12.586-15.488 7.241-5.628 15.79-7.748 25.41-6.276 9.617 1.473 20.33 6.57 31.714 13.53Z"/><path d="M137.658 42.464c8.738 5.308 18.498 13.056 28.22 20.642 9.722 7.586 19.366 14.856 27.86 20.154 8.492 5.298 15.198 7.678 19.46 10.729 6.62 4.74 9.202 10.416 6.652 15.573-2.932 5.927-11.398 11.513-31.482 12.383-7.736.336-16.096.27-24.57.334-8.474.063-17.278.049-24.692 1.863-10.13 2.478-18.894 6.038-26.38 10.284-7.486 4.248-13.742 9.118-19.526 12.972-8.99 5.99-16.488 6.972-23.424-.08-3.96-4.028-7.566-10.46-10.128-18.658-2.562-8.196-4.044-18.126-3.748-28.826.282-10.152 1.478-19.754 3.502-28.366 2.025-8.61 4.87-16.246 8.41-22.6 3.538-6.356 7.768-11.428 12.594-14.974 7.25-5.326 15.826-7.11 25.472-5.376s20.392 7.028 31.78 13.946Z"/><path d="M141.298 45.481c8.757 5.254 18.513 12.805 28.217 20.03 9.703 7.226 19.319 13.978 27.804 18.728 8.484 4.75 14.713 6.75 18.904 9.887 6.439 4.82 9.155 10.671 6.893 16.005-2.608 6.148-10.672 11.964-30.572 12.724-7.72.294-16.101.132-24.645.024-8.546-.11-17.743-.91-25.374.694-10.47 2.198-19.546 5.446-27.254 9.45-7.708 4.004-14.094 8.704-19.897 12.5-9.02 5.906-16.304 7.322-22.96.85-3.811-3.707-7.256-9.802-9.69-17.716-2.432-7.914-3.82-17.617-3.467-28.15.504-15.064 3.018-28.9 7.25-40.055 4.23-11.157 10.142-19.679 17.397-24.702 7.269-5.033 15.873-6.483 25.548-4.508 9.68 1.971 20.452 7.401 31.846 14.24Z"/><path d="M144.93 48.46c8.775 5.172 18.523 12.485 28.212 19.319 9.687 6.834 19.275 13.036 27.756 17.223 8.481 4.184 14.18 6.062 18.315 9.29 6.286 4.908 9.147 10.932 7.177 16.44-2.278 6.37-9.946 12.414-29.643 13.09-7.693.266-16.088.024-24.693-.238-8.606-.265-17.416-.536-25.794-.132-11.538.554-20.419 4.5-28.362 8.25-7.945 3.752-14.48 8.264-20.317 11.987-9.078 5.792-16.18 7.605-22.582 1.699-3.675-3.392-6.965-9.146-9.27-16.764-2.308-7.62-3.595-17.082-3.182-27.424.597-14.87 3.141-28.564 7.393-39.524s10.176-19.224 17.454-23.96c7.29-4.742 15.928-5.878 25.634-3.691 9.708 2.187 20.506 7.719 31.902 14.435Z"/><path d="M148.556 51.388c8.792 5.058 18.531 12.102 28.201 18.51 9.671 6.408 19.81 12.926 27.706 15.622 7.901 2.694 13.61 5.64 17.706 8.964 6.162 5.002 9.168 11.192 7.491 16.876-1.945 6.588-9.222 12.852-28.697 13.482-7.662.248-16.055-.062-24.708-.46-8.653-.4-17.559-.878-26.092-.77-11.795.148-21.364 3.372-29.557 6.858-8.195 3.486-14.897 7.798-20.786 11.432-9.164 5.656-16.124 7.826-22.288 2.47-3.552-3.086-6.697-8.498-8.876-15.816-2.182-7.318-3.369-16.52-2.886-26.656.695-14.648 3.284-28.174 7.565-38.92 4.283-10.744 10.227-18.748 17.534-23.202 7.317-4.458 15.991-5.296 25.731-2.92 9.737 2.374 20.56 7.974 31.956 14.53Z"/><path d="M152.174 54.252c8.809 4.914 18.536 11.65 28.188 17.602 9.655 5.952 19.752 11.05 27.413 13.736 7.658 2.683 13.25 5.683 17.324 9.114 6.059 5.1 9.218 11.449 7.836 17.308-1.607 6.807-8.504 13.288-27.74 13.895-7.621.242-16.004-.121-24.695-.641-8.69-.52-17.678-1.186-26.346-1.35-12.032-.228-22.292 2.195-30.751 5.412-8.46 3.214-15.344 7.31-21.304 10.84-9.277 5.494-16.126 7.98-22.076 3.16-3.44-2.786-6.445-7.858-8.506-14.87-2.061-7.011-3.145-15.94-2.591-25.852.807-14.396 3.446-27.73 7.769-38.247 4.322-10.515 10.293-18.252 17.635-22.427 7.35-4.18 16.063-4.74 25.834-2.202 9.773 2.536 20.616 8.166 32.01 14.522Z"/><path d="M155.786 57.038c8.822 4.739 18.536 11.134 28.174 16.596 9.637 5.462 19.608 9.349 27.046 12.032 7.438 2.682 12.93 5.746 16.998 9.28 5.982 5.2 9.294 11.705 8.206 17.734-1.268 7.026-7.794 13.712-26.772 14.326-7.574.246-15.94-.158-24.656-.782-8.714-.623-17.77-1.458-26.56-1.873-12.25-.578-23.19.99-31.93 3.924-8.74 2.935-15.82 6.8-21.87 10.21-9.416 5.309-16.188 8.078-21.95 3.77-3.34-2.497-6.216-7.234-8.16-13.932-1.942-6.7-2.922-15.342-2.29-25.014.922-14.12 3.624-27.236 7.996-37.51 4.37-10.274 10.38-17.738 17.76-21.644 7.388-3.91 16.142-4.206 25.946-1.538 9.804 2.675 20.67 8.303 32.062 14.42Z"/><path d="M159.388 59.737c8.836 4.534 18.535 10.553 28.155 15.494 9.62 4.943 19.378 7.832 26.616 10.523 7.24 2.687 12.651 5.82 16.724 9.467 5.925 5.304 9.395 11.953 8.601 18.15-.928 7.24-7.092 14.125-25.8 14.77-7.52.26-15.862-.17-24.59-.882-8.728-.71-17.839-1.696-26.734-2.339-12.447-.903-24.048-.239-33.084 2.408-9.034 2.645-16.328 6.27-22.48 9.546-9.58 5.1-16.312 8.115-21.904 4.3-3.252-2.218-6.01-6.623-7.84-13.004-1.83-6.382-2.706-14.73-1.992-24.149 1.046-13.817 3.821-26.696 8.248-36.714 4.426-10.017 10.48-17.206 17.901-20.849 7.431-3.647 16.23-3.702 26.067-.927 9.838 2.772 20.725 8.362 32.112 14.206Z"/><path d="M162.982 62.334c8.846 4.298 18.53 9.9 28.136 14.294 9.604 4.39 19.07 6.512 26.128 9.216 7.06 2.702 12.408 5.908 16.502 9.67 5.885 5.41 9.511 12.216 9.011 18.55-.586 7.425-6.4 14.528-24.827 15.23-7.463.284-15.766-.16-24.5-.944-8.732-.785-17.885-1.903-26.872-2.754-12.624-1.2-24.856-1.478-34.198.872-9.342 2.349-16.864 5.72-23.138 8.849-9.77 4.87-16.494 8.093-21.944 4.748-3.18-1.952-5.83-6.023-7.556-12.09-1.726-6.065-2.484-14.12-1.688-23.26 1.174-13.471 4.011-26.115 8.51-35.867 4.496-9.752 10.61-16.66 18.082-20.05 7.476-3.393 16.322-3.224 26.194-.368 9.874 2.86 20.78 8.376 32.16 13.904Z"/><path d="M166.568 64.82c8.862 4.03 18.528 9.187 28.122 12.993 9.594 3.807 18.696 5.395 25.596 8.12 6.9 2.724 12.2 6.032 16.312 9.9 5.856 5.505 9.652 12.444 9.44 18.94-.25 7.636-5.726 14.912-23.858 15.694-7.396.318-15.66-.127-24.386-.969-8.726-.843-17.908-2.073-26.974-3.115-12.784-1.469-25.6-2.715-35.264-.668-9.664 2.048-17.428 5.16-23.838 8.125-9.986 4.62-16.734 8.013-22.064 5.114-3.12-1.697-5.67-5.45-7.292-11.197-1.622-5.746-2.282-13.484-1.398-22.35 1.312-13.132 4.242-25.49 8.81-34.966 4.565-9.472 10.734-16.1 18.258-19.246 7.528-3.147 16.422-2.773 26.328.133 9.91 2.907 20.832 8.31 32.208 13.491Z"/><path d="M170.144 67.18c8.87 3.732 18.516 8.406 28.096 11.604 9.58 3.196 18.246 4.508 25.004 7.26 6.757 2.752 12.032 6.138 16.194 10.126 5.855 5.612 9.806 12.666 9.88 19.318.086 7.842-5.065 15.28-22.895 16.164-7.325.362-15.54-.072-24.25-.958s-17.909-2.214-27.04-3.424c-12.924-1.714-26.273-3.944-36.27-2.202-9.997 1.74-18.02 4.576-24.58 7.368-10.225 4.35-17.055 7.864-22.267 5.4-6.128-2.898-10.12-14.594-8.17-31.748 1.451-12.776 4.485-24.832 9.13-34.02 4.644-9.188 10.872-15.534 18.452-18.446 7.584-2.912 16.528-2.354 26.468.579 9.94 2.93 20.882 8.19 32.248 12.979Z"/><path d="M173.708 69.405c8.876 3.406 18.502 7.561 28.07 10.118 9.569 2.557 17.735 3.857 24.37 6.643 6.636 2.786 11.9 6.252 16.12 10.365 5.866 5.72 9.974 12.872 10.329 19.671.42 8.04-4.445 15.636-21.94 16.636-7.25.416-15.413-.002-24.096-.916-8.685-.914-17.891-2.319-27.071-3.678-13.046-1.933-25.992-3.717-37.196-3.702-11.204.013-18.65 3.958-25.38 6.563-10.487 4.063-17.395 7.681-22.548 5.607-6.078-2.449-9.824-13.403-7.69-29.966 1.598-12.403 4.74-24.14 9.469-33.032 4.727-8.893 11.019-14.958 18.662-17.647 7.64-2.685 16.637-1.966 26.615.964 9.978 2.931 20.934 8.017 32.286 12.374Z"/><path d="M234.886 134.02c-8.703.577-18.775-.119-29.525-1.495-10.752-1.376-22.166-3.41-33.227-5.092-11.06-1.682-22.395-3.986-30.976-2.786a111.612 111.612 0 0 0-21.526 5.214c-11.752 4.098-19.096 8.026-24.252 5.137-5.155-2.89-8.05-12.88-5.91-27.61 1.746-12.013 5.003-23.419 9.82-32.009 4.819-8.589 11.183-14.378 18.886-16.85 7.704-2.472 16.755-1.608 26.767 1.292 10.01 2.898 20.983 7.77 32.324 11.66 8.88 3.046 18.485 6.648 28.04 8.538 9.554 1.89 17.165 3.45 23.697 6.274s11.8 6.376 16.092 10.616c6.438 6.36 10.988 14.464 10.854 21.922-.131 7.46-5.211 14.134-21.064 15.188Z"/></g><circle filter="url(#c)" cx="200" cy="200" r="200" transform="translate(1634 220)" fill="url(#b)" fill-opacity=".48"/><g transform="translate(1416 -30)" stroke="url(#d)" stroke-width="1.5"><path d="M413.41 0 245.873 171.46l-101.16-52.007-.017-.008L.01 405.63l-.01.022 132.34 29.467 133.504 175.208.007.01 235.762-38.826.009-.002L680.36 266.268l.012-.02-136.413-41.525L413.422.022 413.41 0Zm-.008.061 130.526 224.681.003.006 136.386 41.521-178.719 305.207-235.731 38.819-133.501-175.204-.004-.005L.054 405.625l144.659-286.13L245.869 171.5l.011.005L413.402.061Z"/><path d="m2.197 404.837 131.467 29.243.005.006 133.21 173.18 233.259-37.26 97.106-166.131 80.99-137.08L542.743 225.5l-.004-.008-46.54-79.304L412.473 2.842 246.314 172.66l-.014-.007-100.222-51.02L2.197 404.837ZM266.86 607.314l-.008-.01-133.213-173.185L2.133 404.868l.012-.025 143.914-283.268.019.01 100.227 51.022L412.482 2.77l.014.024 83.74 143.37 46.535 79.297L678.3 266.77l-.014.024-81.006 137.103-97.115 166.149h-.01L266.86 607.315Z"/><path d="m4.342 404.049 130.622 29.027.005.007 132.92 171.152 230.788-35.702 96.456-165.321 81.022-135.888L541.55 226.25l-.004-.01-46.515-78.458L411.543 5.626l-164.8 168.19-.015-.01-99.285-50.032L4.342 404.049Zm263.526 200.24-.01-.011L134.936 433.12 4.267 404.084l.015-.03L147.42 123.707l.023.01 99.29 50.038L411.553 5.543l.017.028 83.505 142.186 46.51 78.45 134.647 41.088-.016.027-81.04 135.915-96.466 165.343-.012.002-230.83 35.707Z"/><path d="m6.485 403.259 129.78 28.812.006.008 132.631 169.125 228.315-34.141 95.806-164.512 81.048-134.7-133.71-40.85-.006-.01-46.494-77.614-83.248-140.97-163.436 166.565-.019-.01-98.352-49.048L6.486 403.259Zm262.392 198.008-.01-.014-132.635-169.131L6.4 403.298l.017-.032 142.364-277.43.025.013 98.36 49.053 163.46-166.59.018.033 83.266 141.002 46.488 77.606 133.761 40.866-.019.03-81.069 134.73-95.819 164.536-.014.002-228.36 34.15Z"/><path d="m8.628 402.47 128.938 28.595.007.009 132.34 167.1 225.845-32.581 95.155-163.705L671.99 268.38l-132.82-40.627-.005-.011-46.471-76.77-83.01-139.785-162.074 164.94-.021-.01-97.417-48.065L8.628 402.47Zm261.258 195.773-.011-.014L137.53 431.123 8.533 402.515l.019-.037 141.592-274.512.028.014 97.425 48.07L409.696 11.083l.02.035 83.033 139.82 46.464 76.76 132.874 40.645-.021.035-81.1 133.542-95.17 163.732-.013.003-225.897 32.588Z"/><path d="m10.771 401.68 128.098 28.38.008.01 132.048 165.072 223.372-31.021 94.506-162.895 81.105-132.318-131.929-40.403-.007-.011-46.444-75.93-82.774-138.596-160.713 163.314-.023-.012-96.482-47.078L10.771 401.68Zm260.124 193.538-.013-.016-132.053-165.078L10.666 401.73l.021-.041 140.818-271.591.031.015 96.49 47.083L408.768 13.853l.024.039 82.796 138.637 46.438 75.917 131.989 40.42-.023.04-81.128 132.356-94.522 162.926-.017.002-223.43 31.028Z"/><path d="m12.915 400.892 127.254 28.163.008.012 131.76 163.045 220.9-29.462 93.856-162.087 81.131-131.128-131.034-40.179-.008-.012-46.424-75.084-82.534-137.41-159.35 161.688-.025-.012L152.9 132.33 12.916 400.892Zm258.988 191.302-.013-.016-131.764-163.053-127.327-28.178.024-.045 140.045-268.675.034.017 95.556 46.1L407.84 16.624l.024.044 82.56 137.45 46.416 75.072 131.102 40.2-.025.043-81.159 131.17-93.874 162.12-.02.002-220.962 29.47Z"/><path d="M15.058 400.103 141.47 428.05l.01.012 131.47 161.02 218.426-27.903 93.207-161.277 81.16-129.94-130.145-39.956-.009-.013-46.398-74.239-82.295-136.222-157.99 160.062-.027-.013-94.613-45.112L15.058 400.103ZM272.913 589.17l-.014-.018-131.476-161.026-126.49-27.964.024-.049 139.271-265.756.037.018 94.624 45.116L406.912 19.395l.028.046 82.323 136.268 46.39 74.226 130.22 39.98-.03.045-81.187 129.986-93.227 161.311-.02.003-218.496 27.91Z"/><path d="m17.201 399.315 125.57 27.73.01.011 131.18 158.993 215.956-26.34 92.556-160.468 81.186-128.75-129.25-39.733-.01-.014-46.377-73.396-82.057-135.036L249.337 180.75l-.03-.014-93.676-44.128-138.43 262.708Zm256.72 186.832-.016-.02-131.184-159-125.657-27.75.028-.052 138.5-262.838.038.018 93.687 44.134L405.983 22.164l.03.05L488.1 157.3l46.367 73.382L663.8 270.438l-.03.05-81.218 128.8-92.578 160.506-.023.001-216.03 26.352Z"/><path d="m19.346 398.527 124.726 27.514.01.012 130.89 156.967 213.485-24.78 91.905-159.66 81.215-127.562L533.22 231.51l-.01-.015-46.355-72.55-81.82-133.849-155.265 156.81-.031-.015-92.745-43.144L19.346 398.527ZM274.93 583.124l-.017-.02-130.896-156.975-124.82-27.534.03-.057 137.723-259.92.042.02 92.756 43.15 155.305-156.85.033.052 81.85 133.901 46.345 72.535 128.447 39.536-.035.054-81.248 127.614-91.93 159.701-.023.003-213.562 24.79Z"/><path d="m21.49 397.736 123.883 27.298.011.014 130.6 154.941 211.011-23.22 91.258-158.853 81.24-126.37-127.465-39.286-.01-.016-46.332-71.707-81.579-132.66-153.906 155.182-.033-.015-91.81-42.159L21.49 397.736ZM275.94 580.1l-.018-.02-130.607-154.95-123.984-27.322.033-.06L158.312 140.75l.045.02 91.821 42.164L404.126 27.707l.035.057 81.614 132.718 46.32 71.69 127.562 39.314-.038.058-81.276 126.426-91.283 158.896-.027.003L275.94 580.1Z"/><path d="m23.632 396.947 123.042 27.082.012.015L276.994 576.96l208.541-21.662 90.607-158.043 81.27-125.18-126.575-39.06-.01-.017-46.308-70.866-81.344-131.475-152.542 153.56-.035-.018-90.875-41.175-136.09 253.924Zm253.315 180.13-.019-.024-130.315-152.922-123.149-27.106.035-.065 136.175-254.08.047.02 90.888 41.181L403.196 30.476l.038.061 81.38 131.534 46.295 70.848 126.677 39.092-.04.062-81.309 125.238-90.633 158.091-.029.003-208.628 21.671Z"/><path d="m25.777 396.16 122.198 26.866.013.015 130.02 150.887 206.068-20.101 89.956-157.234L655.33 272.6l-125.682-38.835-.012-.018-46.286-70.022-81.103-130.288-151.18 151.934-.038-.017-89.942-40.191L25.777 396.16Zm252.181 177.891-.02-.023-130.027-150.894-122.313-26.892.037-.069 135.4-251.163.05.023 89.955 40.196L402.27 33.247l.04.064 81.14 130.35 46.274 70.003 125.792 38.87-.043.065-81.339 124.055-89.985 157.284-.03.003-206.16 20.11Z"/><path d="m27.92 395.371 121.356 26.649.014.016 129.73 148.861 203.596-18.542 89.306-156.425 81.325-122.802-124.79-38.612-.013-.019-46.26-69.177-80.868-129.1-149.819 150.306-.039-.017-89.006-39.208L27.92 395.371Zm251.046 175.657-.02-.024-129.737-148.87-121.478-26.677.04-.073L162.396 147.14l.053.023 89.02 39.214L401.34 36.019l.041.067 80.906 129.166 46.25 69.157 124.907 38.649-.045.069-81.37 122.868-89.337 156.48-.032.002-203.694 18.551Z"/><path d="m30.064 394.582 120.513 26.433.016.015L280.03 567.866l201.125-16.982 88.657-155.615 81.351-121.613-123.896-38.39-.014-.018-46.238-68.332L400.39 39 251.931 187.68l-.042-.018-88.072-38.223L30.064 394.582Zm249.912 173.42-.022-.024-129.447-146.844-120.644-26.46.043-.077L163.758 149.27l.056.024 88.085 38.228L400.413 38.79l.043.07 80.67 127.984 46.226 68.31 124.022 38.428-.05.073-81.398 121.684-88.69 155.67-.034.003-201.226 16.99Z"/><path d="m32.207 393.793 119.672 26.216.015.017 129.148 144.81 198.654-15.423 88.006-154.807 81.38-120.423-123.005-38.165-.014-.02-46.216-67.487-80.389-126.73-147.096 147.055-.043-.02-87.136-37.237L32.207 393.793ZM280.984 564.98l-.023-.026-129.156-144.818-119.809-26.247.044-.081L165.121 151.4l.058.025 87.151 37.245L399.483 41.56l.047.073 80.433 126.8 46.202 67.466 123.137 38.207-.053.078L567.82 394.68l-88.04 154.866-.037.003-198.759 15.43Z"/><path d="m34.352 393.005 118.827 26 .016.018 128.86 142.784 196.18-13.865 87.359-154 81.405-119.231-122.111-37.941-.014-.021-46.193-66.643L398.53 44.562l-145.735 145.43-.045-.02-86.202-36.254L34.352 393.005Zm247.642 168.952-.024-.026-128.868-142.793-118.973-26.031.048-.086 132.306-239.488.06.025 86.218 36.26L398.556 44.33l.048.077 80.198 125.619 46.177 66.62L647.23 274.63l-.055.082-81.458 119.309-87.394 154.06-.04.004-196.29 13.872Z"/><path d="m36.496 392.215 117.984 25.784.016.018 128.57 140.758 193.71-12.303 86.708-153.19 81.432-118.044-121.218-37.717-.015-.021-46.17-65.801L397.6 47.344 253.228 191.148l-.047-.02-85.27-35.27L36.497 392.215ZM283.002 558.93l-.024-.027L154.4 418.138 36.263 392.32l.049-.09 131.533-236.566.063.026 85.284 35.278L397.626 47.103l.052.08 79.962 124.43 46.154 65.778 121.366 37.763-.06.086-81.487 118.123-86.744 153.255-.041.003-193.826 12.31Z"/><path d="m38.639 391.426 117.144 25.568.017.019 128.277 138.732 191.239-10.746 86.057-152.38 81.46-116.853-120.327-37.492-.016-.022-46.145-64.958-79.675-123.17-143.011 142.179-.05-.02-84.334-34.29L38.639 391.427ZM284.01 555.909l-.025-.028L155.7 417.139 38.395 391.535l.052-.093 130.758-233.65.065.028 84.35 34.295L396.698 49.872l.054.083 79.726 123.249 46.128 64.933 120.484 37.54-.063.09-81.518 116.938-86.096 152.449-.043.002-191.358 10.753Z"/><path d="m40.784 390.638 116.298 25.352.017.019L285.09 552.714l188.766-9.186 85.407-151.57 81.486-115.664-119.433-37.268-.016-.023-46.124-64.114-79.434-121.984-141.65 140.552-.05-.02-83.403-33.303L40.784 390.638Zm244.237 162.246-.026-.028-127.999-136.714-116.468-25.39.056-.097 129.982-230.73.067.027 83.42 33.31 141.716-140.62.056.087 79.488 122.066 46.106 64.088 119.598 37.32-.066.093-81.547 115.752-85.449 151.642-.046.002-188.888 9.192Z"/><path d="m42.927 389.85 115.456 25.135.019.018L286.1 549.683l186.296-7.626 84.756-150.76 81.515-114.477-118.54-37.044-.018-.024-46.1-63.269L394.81 55.687 254.525 194.613l-.053-.02-82.467-32.322L42.927 389.85Zm243.102 160.01-.027-.03-127.708-134.688L42.66 389.97l.059-.103 129.209-227.81.07.026 82.485 32.329L394.84 55.416l.057.088 79.253 120.882 46.08 63.242 118.715 37.099-.07.097-81.578 114.565L472.5 542.226l-.048.003-186.423 7.63Z"/><path d="m45.07 389.06 114.614 24.918.019.02 127.41 132.655 183.822-6.069 84.108-149.949 81.542-113.287-117.648-36.82-.017-.025-46.08-62.425-78.957-119.61-138.927 137.3-.054-.02-81.533-31.338-128.3 224.65Zm241.969 157.774-.028-.028-127.42-132.664-114.798-24.959.06-.106 128.436-224.89.073.027 81.55 31.344 139-137.373.06.092 79.016 119.698 46.059 62.398 117.829 36.878-.073.101-81.61 113.38-84.15 150.028-.051.002-183.953 6.072Z"/><path d="m47.213 388.271 113.771 24.701.02.02 127.121 130.631 181.351-4.509 83.457-149.143L634.5 277.876l-116.753-36.598-.018-.024-46.056-61.582-78.72-118.424-137.565 135.675-.055-.02-80.599-30.356-127.52 221.724Zm240.834 155.541-.028-.029-127.129-130.64L46.924 388.4l.063-.11 127.664-221.974.075.028 80.616 30.363 137.64-135.75.063.093 78.781 118.514 46.034 61.554 116.945 36.657-.077.105-81.639 112.192-83.502 149.225-.054.002-181.486 4.513Z"/><path d="m49.359 387.483 112.926 24.484.02.021 126.83 128.604 178.88-2.95 82.808-148.33 81.596-110.91-115.863-36.373-.018-.025-46.033-60.737-78.481-117.239L255.82 198.076l-.058-.02-79.664-29.369-126.74 218.796Zm239.696 153.305-.03-.03-126.838-128.613-113.13-24.529.068-.115 126.888-219.053.076.03 79.684 29.375L392.055 63.727l.065.097 78.543 117.331 46.01 60.708 116.062 36.435-.08.11-81.67 111.008-82.854 148.418-.055.001-179.021 2.953Z"/><path d="m51.503 386.693 112.083 24.271.021.02 126.54 126.577 176.41-1.39 82.154-147.523 81.624-109.719-114.97-36.147-.018-.025-46.008-59.895-78.245-116.05-134.84 132.42-78.79-28.407-125.96 215.868Zm238.562 151.07-.03-.03-126.549-126.586L51.191 386.83l.07-.119 126.113-216.13.08.028 78.75 28.392L391.124 66.5l.067.1 78.31 116.146 45.984 59.865 115.177 36.213-.084.113-81.7 109.82-82.204 147.614-.059.001-176.55 1.391Z"/><path d="m291.158 534.532 173.938.167 81.506-146.712 81.65-108.53-114.073-35.923-.021-.025-45.986-59.05L390.165 69.59 256.687 200.388l-.061-.022-77.797-27.403L53.647 385.904l111.24 24.054.022.02 126.249 124.554Zm174.06.374h-.061l-174.084-.167-.03-.03-126.258-124.562-111.461-24.1.072-.124 125.34-213.212.08.028 77.818 27.411L390.196 69.27l.07.102 78.074 114.965 45.962 59.02 114.292 35.99-.088.117-81.73 108.636-81.558 146.806Z"/><path d="m292.17 531.5 171.466 1.728 80.856-145.902 81.676-107.342-113.182-35.7-.02-.025-45.963-58.205L389.234 72.37 257.118 201.543l-76.926-26.441-124.4 210.014 110.395 23.838.022.02L292.17 531.502Zm171.591 1.942h-.064l-171.615-1.728-.03-.03-125.97-122.535-110.626-23.886.076-.128 124.565-210.292.083.029 76.882 26.426L389.268 72.04l.071.105 77.836 113.782 45.938 58.174 113.41 35.77-.093.122-81.759 107.449-80.91 146Z"/><path d="m293.183 528.472 168.995 3.285 80.204-145.093 81.703-106.152-112.287-35.475-.021-.026-45.94-57.361-77.53-112.498-130.756 127.547-.064-.021-75.93-25.44-123.621 207.09 109.552 23.62.023.022 125.672 120.502Zm169.124 3.508-.067-.001-169.148-3.288-.031-.03-125.68-120.51L57.589 384.48l.078-.132 123.79-207.374.086.028 75.95 25.446L388.342 74.81l.074.108 77.599 112.599 45.915 57.329 112.523 35.549-.096.125-81.79 106.264-80.26 145.195Z"/><path d="m294.193 525.441 166.524 4.843 79.556-144.282L622 281.038l-111.394-35.25-.021-.028-45.916-56.518-77.292-111.308-129.394 125.917-.066-.02-74.996-24.454L60.079 383.538l108.71 23.404.023.021 125.38 118.478Zm166.657 5.074-.07-.002-166.681-4.847-.031-.03-125.39-118.485L59.72 383.694l.082-.137L182.82 179.104l.086.028 75.017 24.46L387.41 77.583l.077.11 77.363 111.413 45.889 56.484 111.64 35.33-.1.13-81.817 105.077-79.613 144.388Z"/><path d="m295.205 522.411 164.052 6.4 78.906-143.472 81.753-103.773-110.499-35.028-.022-.026-45.894-55.674-77.053-110.125-128.032 124.294-.066-.021-74.063-23.472L62.223 382.75l107.866 23.186.023.022 125.093 116.453Zm164.187 6.641-.072-.003-164.21-6.408-.032-.029-125.102-116.461L61.851 382.91l.086-.141 122.245-201.534.087.028 74.084 23.479 128.13-124.388.077.113 77.128 110.229 45.866 55.64 110.757 35.109-.106.133-81.848 103.89-78.965 143.584Z"/><path d="m296.217 519.382 161.58 7.959 78.256-142.662 81.782-102.585L508.23 247.29l-.023-.028-45.873-54.83-76.814-108.94-126.67 122.67-.069-.021-73.129-22.49L64.37 381.962l107.02 22.97.023.023 124.805 114.428Zm161.72 8.207-.076-.004-161.743-7.967-.032-.03-124.813-114.434-107.287-23.03.088-.143 121.47-198.613.09.027 73.15 22.495 126.77-122.765.081.115 76.89 109.047 45.844 54.795 109.872 34.888-.108.138-81.88 102.704-78.317 142.777Z"/><path d="m297.228 516.35 159.11 9.519 77.603-141.854 81.81-101.394-108.713-34.578-.024-.028-45.848-53.985L384.59 86.276 259.281 207.317l-.07-.02-72.196-21.505-120.501 195.38 106.176 22.755.025.023 124.513 112.4Zm159.252 9.775-.079-.005-159.274-9.529-.033-.029-124.52-112.406L66.117 381.34l.093-.149L186.904 185.5l.09.028 72.217 21.51 125.413-121.14.082.118 76.656 107.861 45.817 53.951 108.99 34.667-.112.142-81.912 101.517-77.665 141.971Z"/><path d="m298.24 513.32 156.64 11.076 76.951-141.042 81.835-100.206-107.818-34.354-.024-.027-45.826-53.143L383.66 89.055 259.713 208.472l-.07-.02-71.262-20.524L68.657 380.383l105.334 22.54.025.02L298.24 513.32Zm156.784 11.342-.08-.006-156.808-11.088-.033-.028-124.23-110.384-105.625-22.6.096-.154 119.922-192.77.093.025 71.283 20.53L383.695 88.668l.086.12 76.417 106.68 45.796 53.105L614.1 283.02l-.118.145-81.94 100.332-77.018 141.166Z"/><path d="m299.253 510.29 154.165 12.634 76.302-140.231 81.862-99.017-106.925-34.131-.024-.027-45.8-52.297L382.73 91.836l-122.584 117.79-.072-.02-70.33-19.54-118.943 189.53 104.488 22.32.025.023 123.938 108.35Zm154.313 12.909-.084-.008-154.336-12.647-.033-.028L175.17 402.159 70.382 379.773l.1-.158 119.145-189.852.094.026 70.353 19.545L382.766 91.439l.09.122 76.181 105.497 45.77 52.26 107.222 34.226-.123.149-81.97 99.146-76.37 140.36Z"/><path d="m300.264 507.26 151.695 14.192 75.653-139.422 81.887-97.83-106.03-33.903-.025-.027-45.777-51.454-75.864-104.2L260.579 210.78l-.072-.02-69.396-18.557L72.947 378.807l103.645 22.104.026.023L300.264 507.26Zm151.847 14.476-.09-.008-151.867-14.208-.033-.03L176.469 401.16l-103.955-22.17.103-.163L190.99 191.894l.095.025 69.418 18.564L381.839 94.21l.09.124 75.947 104.313 45.745 51.417 106.34 34.003-.128.153-82 97.96-75.722 139.556Z"/><path d="M301.275 504.23 450.5 519.98l75.002-138.61 81.912-96.642-105.134-33.68-.025-.027-45.757-50.61-75.626-103.013-119.86 114.538-68.537-17.594L75.09 378.018l102.801 21.888.027.021L301.275 504.23Zm149.38 16.043-.092-.01-149.4-15.767-.034-.028L177.766 400.16l-103.12-21.956.106-.167 117.598-184.01.097.024 68.485 17.58L380.91 96.983l.093.126 75.71 103.127 45.723 50.573 105.456 33.782-.134.157-82.028 96.775-75.075 138.75Z"/><path d="m302.289 501.201 146.752 17.307 74.352-137.8 81.938-95.453L501.09 251.8l-.026-.028-45.732-49.766-75.39-101.828-118.5 112.912-.074-.018-67.53-16.594-116.604 180.75L179.192 398.9l.027.023 123.07 102.28Zm146.91 17.61-.096-.012-146.93-17.328-.032-.027-123.076-102.283-102.29-21.74.112-.173 116.825-181.092.098.024 67.55 16.6L379.98 99.753l.095.128 75.475 101.946 45.697 49.727 104.574 33.562-.137.161-82.06 95.59-74.425 137.943Z"/><path d="m303.298 498.17 144.282 18.864 73.702-136.988 81.963-94.264-103.345-33.23-.026-.027-45.71-48.923-75.15-100.644-117.136 111.286-.076-.017-66.598-15.611L79.381 376.44l101.111 21.457.028.02 122.778 100.254Zm144.442 19.177-.098-.013-144.463-18.888-.032-.025-122.783-100.257-101.455-21.53.115-.176 116.048-178.17.1.024 66.62 15.616 117.26-111.403.097.13 75.236 100.762L500.06 252.3l103.691 33.34-.143.165-82.089 94.403-73.779 137.138Z"/><path d="m304.312 495.14 141.81 20.423 73.05-136.18 81.99-93.075-102.45-33.004-.026-.026-45.688-48.08-74.911-99.46-115.775 109.66-65.744-14.643L81.525 375.651l100.267 21.238.029.022 122.49 98.228Zm141.971 20.745-.101-.015-141.993-20.45-.03-.024-122.495-98.232L81.04 375.851l.118-.181L196.435 200.42l.1.024 65.689 14.632 115.9-109.781.1.132 75 99.58 45.65 48.038 102.809 33.12-.15.168-82.12 93.217-73.129 136.334Z"/><path d="m305.323 492.11 139.34 21.98 72.4-135.368 82.013-91.886-101.554-32.78-.027-.028-45.665-47.235-74.675-98.274-114.412 108.034-.078-.016-64.73-13.646L83.67 374.862l99.423 21.022.028.022 122.202 96.204Zm139.505 22.312-.106-.017-139.524-22.008-.03-.024-122.207-96.207-99.789-21.1.123-.186 114.5-172.327.101.021 64.754 13.651 114.542-108.157.101.134 74.766 98.395 45.628 47.194 101.925 32.9-.155.172-82.15 92.031-72.479 135.528Z"/><path d="m306.334 489.08 136.87 23.538 71.747-134.559 82.043-90.695-100.662-32.557-.025-.027-45.643-46.392-74.436-97.089-113.052 106.409-.077-.015-63.8-12.664L85.815 374.075l98.577 20.806.028.021 121.913 94.178Zm137.038 23.88-.11-.019-137.055-23.57-.031-.023-121.916-94.18-98.955-20.886.127-.189 113.724-169.408.101.02 63.825 12.669 113.183-106.535.103.136 74.53 97.21 45.602 46.352 101.044 32.679-.16.177-82.183 90.842-71.83 134.725Z"/><path d="m307.347 486.05 134.396 25.094 71.122-133.778 82.044-89.476-99.767-32.332-.026-.027-45.619-45.547-74.199-95.905L263.61 218.864l-.078-.015-62.868-11.683-112.703 166.12 97.731 20.588.028.022 121.627 92.155Zm134.566 25.447-.114-.021-134.584-25.128-.029-.023-121.629-92.156-98.122-20.67.132-.195 112.951-166.487.102.019 62.891 11.688L375.335 113.61l.107.138 74.292 96.027 45.578 45.505 100.162 32.46-.166.182-82.197 89.642-71.198 133.932Z"/><path d="m308.359 483.021 131.926 26.65 70.47-132.968 82.07-88.286-98.871-32.108-.028-.026-45.594-44.703-73.961-94.722-110.328 103.158-62.014-10.713L90.106 372.497l96.886 20.371.029.02 121.338 90.133Zm132.098 27.013-.12-.024-132.113-26.686-.03-.022-121.337-90.134-97.291-20.455.137-.199L201.88 208.95l.102.017 61.958 10.703 110.468-103.288.108.14 74.056 94.844 45.554 44.66 99.279 32.24-.172.185-82.226 88.456-70.55 133.127Z"/><path d="m309.37 479.99 129.457 28.208 69.82-132.159 82.092-87.095-97.975-31.88-.027-.027-45.574-43.86-73.723-93.537-108.963 101.531-61.083-9.73L92.25 371.708l96.042 20.153.03.022L309.37 479.99ZM439 508.573l-.122-.026-129.646-28.25-.028-.02-121.048-88.106-96.46-20.242.142-.204 111.404-160.644.102.017 61.026 9.722 109.107-101.665.111.14 73.82 93.66 45.53 43.818 98.396 32.018-.177.19-82.256 87.268-69.9 132.324Z"/><path d="m310.383 476.962 126.985 29.763 69.17-131.35 82.115-85.904-97.078-31.656-.027-.027-45.55-43.015-73.487-92.353-107.602 99.905-.08-.012-60.07-8.736L94.398 370.92l95.195 19.939.029.02 120.76 86.083Zm127.16 30.149-.125-.03-127.177-29.807-.026-.02-120.76-86.08-95.625-20.03.146-.208 110.627-157.721.102.015 60.093 8.738 107.75-100.041.114.14 73.584 92.478 45.505 42.973 97.515 31.798-.184.194-82.284 86.08-69.254 131.52Z"/><path d="m311.394 473.93 124.514 31.32 68.504-130.52.017-.017 82.14-84.718-96.183-31.43-.027-.024-45.527-42.171-73.249-91.17-106.241 98.28-.08-.01-59.14-7.755L96.543 370.13l94.35 19.722.028.02 120.473 84.057Zm124.691 31.72-.13-.033-124.706-31.37-.025-.017-120.47-84.055L95.96 370.36l.151-.214 109.851-154.8.102.015 59.163 7.757 106.394-98.42.115.144 73.346 91.295 45.482 42.126 96.634 31.577-.192.197-82.313 84.897-68.608 130.716Z"/><path d="m312.406 470.901 122.042 32.876 67.856-129.71.018-.02 82.162-83.525-95.288-31.205-.028-.026-45.503-41.328-73.013-89.983-104.875 96.652-58.289-6.782-108.8 151.492 93.505 19.504.028.02 120.185 82.035Zm122.222 33.286-.136-.036-122.234-32.928-.025-.016-120.18-82.033-93.963-19.599.157-.219 109.076-151.878.103.012 58.232 6.776L370.69 127.47l.117.145 73.113 90.108 45.456 41.284 95.754 31.357-.198.202-82.34 83.71-67.963 129.911Z"/><path d="m313.42 467.87 119.57 34.433 67.203-128.9.019-.019 82.186-82.336-94.391-30.979-.028-.025L442.5 219.56l-72.777-88.8-103.515 95.026-.08-.008-57.276-5.79-108.018 148.567 92.657 19.287.029.019L313.42 467.87Zm119.752 34.856-.14-.04-119.764-34.488-.023-.016-119.894-80.004-93.13-19.387.163-.223 108.3-148.956.103.01 57.299 5.793 103.675-95.173.119.146 72.876 88.926 45.433 40.439 94.87 31.137-.204.205-82.371 82.521-67.312 129.11Z"/><path d="m314.43 464.842 117.102 35.987 66.552-128.088.02-.02 82.208-81.146-93.493-30.754-.027-.024-45.458-39.64-72.538-87.617-102.153 93.4-.08-.006-56.344-4.81L102.98 367.767l91.81 19.07.029.019 119.61 77.986Zm117.286 36.425-.146-.045-117.316-36.062-119.604-77.981-92.298-19.172.168-.228 107.527-146.035.1.009 56.368 4.812 102.318-93.551.12.147 72.64 87.743 45.41 39.594 93.989 30.918-.212.209-82.4 81.335-66.664 128.307Z"/><path d="m105.126 366.977 90.965 18.853.029.018 119.342 75.977 114.611 37.53 65.9-127.277.022-.02 82.233-79.956-92.599-30.53-.027-.025-45.434-38.795-72.3-86.433-100.792 91.775-.079-.006-55.414-3.827-106.457 142.716Zm325.13 132.826-.149-.049-114.802-37.597-119.356-75.978-91.468-18.958.174-.232 106.752-143.112.101.007 55.435 3.83 100.962-91.929.124.15 72.401 86.558 45.385 38.75 93.11 30.698-.219.213-82.432 80.147-66.018 127.502Z"/><path d="m107.274 366.19 90.118 18.635.029.017 119.053 73.951 112.14 39.086 65.25-126.463.022-.023 82.256-78.765-91.702-30.303-.027-.024L439 224.35 366.937 139.1l-99.428 90.148-.078-.004-54.482-2.847L107.274 366.19Zm321.525 132.154-.155-.054-112.331-39.16-119.063-73.95-90.637-18.742.18-.237L212.769 226.01l.1.005 54.504 2.85 99.599-90.306.127.15 72.167 85.375 45.362 37.906 92.229 30.478-.227.217-82.46 78.96-65.371 126.7Z"/><path d="m109.42 365.4 89.27 18.42.029.017 118.764 71.924 109.674 40.644 64.598-125.65.024-.024 82.277-77.577-90.803-30.078-.028-.022-45.388-37.108-71.828-84.067-98.065 88.522-.077-.002-53.553-1.866L109.42 365.4Zm317.922 131.483-.16-.059-109.866-40.719-118.768-71.922-89.805-18.53.187-.244 105.199-137.266 53.674 1.87 98.242-88.683.128.15 71.93 84.193 45.337 37.061 91.349 30.258-.235.221-82.488 77.775-64.724 125.895Z"/><path d="m111.567 364.611 88.45 18.221 118.477 69.898 107.203 42.198 63.949-124.839.025-.024 82.299-76.384-89.908-29.854-.027-.02-45.365-36.266-71.59-82.882-96.702 86.895h-.078l-52.621-.883-104.112 133.94Zm314.315 130.812-.164-.066-107.395-42.277-118.475-69.896-88.975-18.317.193-.248L215.49 230.277l.098.001 52.642.883 96.886-87.059.13.151 71.693 83.007 45.313 36.22 90.468 30.038-.242.224-82.515 76.587-64.081 125.094Z"/><path d="m113.713 363.823 87.604 18.001L319.504 449.7l104.735 43.755 63.298-124.027.027-.025 82.32-75.195-89.01-29.628-.027-.02-45.342-35.42-71.354-81.702-95.34 85.272h-.075l-51.69.097-103.333 131.017Zm310.713 130.141-.17-.072-104.928-43.837-118.181-67.87-88.145-18.102.199-.253 103.65-131.42h.097l51.71-.099 95.528-85.438.132.151 71.459 81.826 45.288 35.374 89.587 29.82-.25.228-82.543 75.4-63.433 124.292Z"/><path d="m115.861 363.036 86.754 17.783 117.897 65.849 102.268 45.31 62.646-123.214.028-.026 82.342-74.005-88.11-29.403-.029-.02-45.318-34.575-71.117-80.516-93.977 83.644-.074.002-50.763 1.077-102.547 128.094Zm307.107 129.468-.176-.078-102.46-45.397-117.887-65.842-87.313-17.887.207-.258 102.872-128.5.094-.002 50.783-1.078 94.17-83.815.133.152 71.222 80.642 45.263 34.527 88.707 29.601-.259.232-82.572 74.213-62.784 123.49Z"/><path d="m118.008 362.247 85.907 17.565 117.608 63.824 99.802 46.867 61.992-122.402.03-.027 82.363-72.815-87.24-29.196-45.296-33.732-70.88-79.333-92.614 82.017-.073.003-49.832 2.06-101.767 125.169ZM421.51 491.044l-.18-.084-99.993-46.957-117.593-63.815-86.484-17.673.214-.264 102.097-125.577.093-.004 49.852-2.061 92.81-82.19.138.152 70.985 79.458 45.24 33.685 87.826 29.381-.267.236-82.6 73.025-62.138 122.688Z"/><path d="m120.155 361.459 85.06 17.349 117.319 61.798 97.33 48.419 61.343-121.587.03-.028 82.387-71.627-86.342-28.966-45.273-32.888-70.643-78.151-91.252 80.39-.071.005-48.903 3.042-100.985 122.244ZM420.05 489.585l-.186-.092-97.522-48.514-117.296-61.788-85.658-17.461.222-.268 101.322-122.653.09-.006 48.923-3.043 91.453-80.57.139.154 70.749 78.276 45.215 32.84 86.948 29.159-.276.24-82.631 71.84-61.492 121.886Z"/><path d="m122.305 360.67 84.208 17.13 117.03 59.772 94.865 49.977 60.69-120.774.032-.027 82.406-70.44-85.444-28.74-45.249-32.044-70.408-76.966-89.888 78.763-48.04 4.029-100.202 119.32Zm296.288 127.457-.19-.102-95.056-50.076-117-59.757-84.827-17.248.23-.273 100.544-119.73.088-.007 47.99-4.025 90.096-78.945.141.153 70.514 77.09 45.19 31.998 86.07 28.94-82.944 70.898-60.846 121.084Z"/><path d="m124.452 359.882 83.36 16.913 116.74 57.747 92.4 51.53 60.037-119.962.034-.03 82.427-69.245-84.545-28.512-45.227-31.202-70.17-75.784-88.526 77.138-.068.008-47.043 5.003-99.419 116.396ZM417.134 486.67l-.197-.11-92.587-51.636-116.705-57.73-83.998-17.035.24-.28 99.767-116.804.086-.01 47.061-5.005 88.738-77.324.143.154 70.277 75.907 45.166 31.153 85.19 28.72-.294.248-82.687 69.465-60.2 120.287Z"/><path d="m126.6 359.094 82.458 16.678 116.504 55.738 89.933 53.085 59.384-119.147.036-.03 82.45-68.056-83.647-28.286-45.205-30.358-69.934-74.602-87.162 75.513-.066.008-46.115 5.986-98.636 113.47Zm289.076 126.118-.202-.12-90.118-53.195-116.436-55.712-83.145-16.81 99.24-114.165 46.214-6 87.382-75.701.144.154 70.04 74.723 45.143 30.31 84.312 28.502-.303.25-82.716 68.279-59.555 119.485Z"/><path d="m128.748 358.306 81.61 16.459 116.212 53.714 87.466 54.637 58.735-118.331.037-.03 82.468-66.868-82.746-28.06-45.181-29.512-69.699-73.42-85.798 73.885-.063.01-45.186 6.969-97.855 110.547Zm285.467 125.448-.208-.131-87.649-54.754-116.137-53.683-82.319-16.597.257-.29 98.217-110.956 45.281-6.984 86.024-74.078.146.153 69.805 73.54 45.117 29.466 83.435 28.284-.313.254-82.745 67.093-58.911 118.683Z"/><path d="m130.898 357.518 80.758 16.242 115.922 51.688 85.001 56.19 58.08-117.517.04-.032 82.49-65.677-81.798-27.809-45.208-28.692-69.462-72.236-84.435 72.258-.06.011-44.258 7.95-97.07 107.624Zm281.86 124.78-.215-.142-85.182-56.314-115.84-51.654-81.49-16.383.265-.295 97.44-108.034 44.35-7.967 84.664-72.455.148.153 69.57 72.356 45.117 28.635 82.532 28.051-.324.258-82.772 65.905-58.264 117.885Z"/><path d="m133.047 356.731 79.91 16.023 115.632 49.661 82.533 57.743 57.43-116.699.04-.033 82.508-64.489-80.9-27.583-45.18-27.845-69.227-71.055-83.073 70.631-.058.012-43.327 8.932-96.288 104.702Zm278.251 124.11-.22-.153-82.712-57.874L212.82 373.19l-80.663-16.17.276-.3 96.664-105.11.073-.016 43.342-8.934 83.31-70.834.15.154 69.332 71.173 45.091 27.788 81.656 27.835-.334.261-82.8 64.718-57.619 117.086Z"/><path d="m135.197 355.942 79.062 15.808 115.336 47.634 80.072 59.295 56.773-115.884.044-.034 82.528-63.299-80.001-27.354-45.203-27.04-68.943-69.835-81.71 69.005-42.456 9.927-95.502 101.777Zm274.642 123.444-.225-.166-80.246-59.433-115.244-47.594-79.84-15.958.287-.306 95.885-102.186.068-.016 42.417-9.916 81.953-69.212 69.225 70.12 45.087 26.97 80.779 27.614-.345.264-82.83 63.53-56.971 116.29Z"/><path d="m137.35 355.154 78.207 15.592 115.08 45.618.026.021 77.546 60.813 56.123-115.067.046-.035 82.545-62.109-79.099-27.127-45.18-26.196-68.708-68.653-80.345 67.381-.052.013-41.474 10.894-94.716 98.855ZM408.376 477.93l-.229-.18-77.749-60.972-114.975-45.58-79.012-15.749.298-.31 95.106-99.263.065-.017 41.487-10.897 80.595-67.592.154.154 68.838 68.784 45.063 26.123 79.901 27.398-83.212 62.61-56.33 115.491Z"/><path d="m139.499 354.367 77.358 15.372 114.792 43.595.031.025 75.074 62.358 55.468-114.25.047-.036 82.565-60.918-78.202-26.903-45.155-25.348-68.471-67.47-78.98 65.751-.048.013-40.547 11.88-93.932 95.931Zm267.419 122.11-.235-.196-75.278-62.527-114.679-43.556-78.189-15.534.31-.317 94.329-96.336 40.619-11.9 79.239-65.966.154.152 68.603 67.6 45.037 25.278 79.026 27.181-83.253 61.427-55.683 114.693Z"/><path d="m141.65 353.578 76.507 15.155 114.508 41.57.034.03 72.599 63.903 54.815-113.432.05-.037 82.582-59.73-77.301-26.675-45.134-24.505-68.23-66.287-77.618 64.126-.044.014-39.621 12.862-93.147 93.006Zm263.809 121.445-.241-.211-72.805-64.084L218.027 369.2l-77.365-15.321.322-.322 93.553-93.412.055-.018 39.63-12.865 77.883-64.344 68.52 66.567 45.014 24.433 78.149 26.965-83.29 60.243-55.04 113.897Z"/><path d="m143.801 352.79 75.656 14.938 114.222 39.546.038.036 70.126 65.443 54.16-112.612.052-.038 82.601-58.542-76.404-26.448-45.109-23.66-67.993-65.105-76.253 62.5-.04.015-38.693 13.844-92.363 90.084Zm260.196 120.78-.245-.227-70.333-65.637-114.09-39.503-76.544-15.11.336-.327 92.776-90.487.05-.018 38.704-13.847 76.524-62.724.158.15 68.126 65.234 44.988 23.588 77.276 26.746-.39.278-82.94 58.783-54.396 113.102Z"/><path d="m145.955 352.004 74.801 14.72 113.936 37.52.042.04 67.653 66.986 53.507-111.793.055-.037 82.62-57.354-75.505-26.222-45.088-22.814-67.756-63.921L275.331 250l-37.8 14.842-91.576 87.16Zm256.581 120.115-.25-.247-67.862-67.19-113.794-37.476-75.719-14.897.35-.333 91.996-87.562.045-.018 37.775-14.831 75.17-61.101.158.15 67.888 64.048 44.965 22.743 76.403 26.532-.404.279-82.969 57.597-53.752 112.306Z"/><path d="m148.107 351.218 73.95 14.5 113.65 35.494.045.048 65.182 68.525 52.851-110.97.057-.04 82.637-56.164-74.604-25.993-45.063-21.973-67.519-62.738-73.557 59.259-36.839 15.812-90.79 84.24Zm252.967 119.45-.254-.266-65.39-68.745-113.497-35.448-74.9-14.686.365-.338 91.22-84.638.04-.017 36.846-15.816 73.812-59.476.162.149 67.651 62.86 44.94 21.905 75.527 26.312-.416.283-82.996 56.409-53.11 111.512Z"/><path d="m150.26 350.43 73.098 14.282 113.364 33.47.049.056L399.48 468.3l52.197-110.15.058-.04 82.653-54.974-73.704-25.767-45.04-21.127-67.28-61.556-72.137 57.599-35.963 16.829-90.003 81.316Zm249.353 118.788-63.176-70.584-113.201-33.424-74.08-14.473.38-.344 90.44-81.712.035-.016 35.947-16.813 72.43-57.841.162.148 67.413 61.677 44.916 21.058 74.654 26.097-.43.286-83.024 55.22-52.466 110.72Z"/><path d="m152.418 349.642 72.239 14.065 113.08 31.444.052.061 60.237 71.603 51.541-109.33.062-.04 82.669-53.786-72.802-25.538-45.016-20.284-67.044-60.374-70.776 55.977-35.031 17.807-89.211 78.394Zm245.733 118.127-.262-.31-60.447-71.85-112.905-31.395-73.258-14.264.398-.35 89.687-78.802 35.017-17.793 71.077-56.222.163.147 67.176 60.495 44.891 20.212 73.78 25.882-.443.288-83.05 54.034-51.824 109.928Z"/><path d="m154.573 348.855 71.383 13.847 112.796 29.42.055.068 57.765 73.135 50.884-108.504 82.751-52.638-71.9-25.31-44.995-19.439-66.806-59.19-69.413 54.352-34.12 18.801-88.4 75.458Zm242.114 117.466-58.239-73.736-112.608-29.37-72.44-14.05.415-.356 88.86-75.844 34.128-18.808 69.725-54.6.164.146 66.938 59.308 44.868 19.37 72.907 25.665-83.537 53.138-51.18 109.137Z"/><path d="m156.73 348.067 70.526 13.63 112.513 27.391.058.078 55.291 74.67 50.23-107.677.067-.042 82.701-51.41-71-25.085-44.97-18.59-66.567-58.01-68.055 52.73-33.18 19.778-87.614 72.537Zm238.494 116.808-.267-.36-55.502-74.954-112.312-27.344-71.625-13.839.435-.362 88.084-72.92 33.186-19.786 68.376-52.98.166.144 66.7 58.126 44.843 18.524 72.034 25.45-.472.293-83.106 51.661-50.54 108.347Z"/><path d="m158.887 347.281 69.67 13.408 112.225 25.368 52.885 76.29 49.571-106.853.07-.043 82.717-50.22-70.098-24.856-44.945-17.747-66.333-56.83-66.692 51.107-32.239 20.757-86.83 69.62Zm234.874 116.15-53.304-76.893-112.012-25.319-70.809-13.627 87.767-70.368 32.243-20.76 67.022-51.36.166.141 66.465 56.943 44.818 17.68 71.162 25.234-83.62 50.77-49.898 107.558Z"/><path d="m161.047 346.496 68.808 13.189 111.943 23.342.061.097 50.357 77.731 48.913-106.024.073-.043 82.731-49.034-69.197-24.629-44.92-16.902-66.094-55.646-65.333 49.484-31.299 21.735-86.043 66.7Zm231.25 115.49-.27-.417-50.565-78.052-111.715-23.295-69.993-13.415.48-.373 86.532-67.08 31.302-21.736 65.671-49.742.168.141 66.226 55.757 44.792 16.837 70.291 25.019-83.66 49.586-49.26 106.77Z"/><path d="m163.208 345.71 179.607 34.285.065.106 47.885 79.26 48.255-105.196.077-.045 82.744-47.842-113.153-40.427-.037-.031-65.858-54.464L163.208 345.71ZM390.83 460.545l-.27-.448-48.09-79.604-180.6-34.474.502-.376L342.81 210.65l.168.14 65.988 54.57 114.188 40.798-.518.299-83.186 48.098-48.62 105.989Z"/></g><circle filter="url(#f)" cx="200" cy="200" r="200" transform="translate(1234 -242)" fill="url(#e)" fill-opacity=".32"/><g transform="translate(1312 148)" stroke="url(#g)" stroke-width="1.5"><path d="M50.964.13c3.332-.977 6.574 3.56 9.878 12.349 3.304 8.79 6.58 21.796 10.518 37.116 2.15 8.366 4.45 17.314 6.928 26.168 2.478 8.854 5.142 17.596 7.966 25.44 5.262 14.618 12.36 24.87 19.056 29.16 6.721 4.306 4.812 7.438-2.224 10.318-7.036 2.882-18.89 3.16-28.746-4.07-8.188-6.006-15.296-15.836-22.4-27.448-6.214-10.16-12.47-22.174-18.836-33.108-6.365-10.936-12.922-20.628-19.134-27.34C5.136 39.17.157 32.747.004 25.869-.15 18.99 3.936 12.817 9 8.935c5.706-4.372 12.57-6.292 19.85-6.87C37.078 1.41 45.485 1.739 50.964.13Z"/><path d="M52.148 1.855C55.528.97 58.796 5.527 62.13 14.3c3.334 8.772 6.64 21.734 10.66 36.906 2.205 8.32 4.574 17.19 7.132 25.92 2.558 8.732 5.314 17.306 8.224 24.96 5.406 14.216 12.563 23.984 19.202 28.128 6.69 4.174 4.772 7.356-2.256 10.49-7.03 3.134-19.05 4.188-29.05-2.392-8.373-5.512-15.59-14.918-22.758-26.296-6.264-9.946-12.544-21.88-18.86-32.946-6.316-11.066-12.748-21.112-18.814-28.268C7.054 40.707 2.23 33.753 1.995 26.745 1.758 19.737 5.612 13.683 10.47 9.9c5.52-4.302 12.24-6.118 19.47-6.56 8.154-.504 16.597-.012 22.208-1.484Z"/><path d="M53.33 3.59c3.43-.8 6.73 3.779 10.098 12.525 3.368 8.746 6.712 21.654 10.822 36.66 2.264 8.264 4.71 17.042 7.353 25.64 2.645 8.598 5.497 16.994 8.498 24.446 5.558 13.798 12.724 23.124 19.306 27.136 6.652 4.054 4.735 7.286-2.285 10.662-7.02 3.376-19.18 5.182-29.322-.746-8.565-5.006-15.897-13.982-23.134-25.11-4.215-6.48-8.427-13.898-12.626-21.434-4.202-7.534-8.397-15.178-12.56-22.138-4.167-6.96-8.316-13.21-12.27-18.262-8.3-10.602-12.964-18.086-13.276-25.23-.312-7.142 3.32-13.112 7.98-16.816 5.342-4.246 11.922-5.966 19.104-6.282 8.078-.356 16.562.294 22.312-1.05Z"/><path d="M54.512 5.339c3.481-.72 6.816 3.874 10.224 12.588 3.408 8.714 6.796 21.556 11.004 36.376 2.328 8.198 4.854 16.874 7.59 25.326 2.736 8.452 5.69 16.66 8.786 23.896 5.716 13.362 12.846 22.294 19.366 26.188 6.612 3.948 4.698 7.226-2.31 10.832-7.008 3.606-19.276 6.134-29.566.862-8.76-4.49-16.21-13.024-23.53-23.886-4.258-6.318-8.504-13.628-12.718-21.132-4.214-7.504-8.396-15.196-12.52-22.292C26.714 67 22.636 60.53 18.762 55.21 10.698 44.14 6.194 36.127 5.812 28.839c-.384-7.29 3.038-13.194 7.506-16.828 5.17-4.204 11.614-5.84 18.752-6.034 8.02-.218 16.546.582 22.442-.638Z"/><path d="M55.694 7.099c3.536-.644 6.91 3.962 10.362 12.636S72.95 41.17 77.266 55.79c2.399 8.122 5.01 16.684 7.842 24.978 2.832 8.292 5.895 16.296 9.088 23.312 5.88 12.91 13.13 21.588 19.374 25.294 6.354 3.77 4.666 7.18-2.326 11.006-6.99 3.826-19.338 7.044-29.774 2.428-8.96-3.962-16.534-12.048-23.942-22.63-4.304-6.15-8.592-13.338-12.825-20.794-4.235-7.456-8.412-15.18-12.505-22.392-4.092-7.212-8.108-13.886-11.91-19.456-7.848-11.5-12.19-20.034-12.64-27.482-.45-7.448 2.769-13.306 7.055-16.884 5.002-4.178 11.317-5.736 18.416-5.818 7.953-.096 16.525.848 22.575-.254Z"/><path d="M56.878 8.867c3.592-.574 7.01 4.04 10.512 12.668 3.504 8.628 7.004 21.296 11.433 35.696 2.473 8.036 5.177 16.472 8.113 24.594 2.933 8.122 6.154 15.948 9.383 22.648 5.926 12.294 13.163 20.926 19.347 24.496 6.314 3.644 4.642 7.146-2.33 11.182-6.97 4.036-19.366 7.904-29.95 3.95-9.166-3.426-16.866-11.058-24.368-21.342-4.356-5.972-8.693-13.028-12.953-20.422S37.62 87.205 33.55 79.895c-4.07-7.31-8.034-14.168-11.77-19.974C14.127 48.03 9.944 38.987 9.431 31.369c-.514-7.618 2.51-13.446 6.622-16.982 4.842-4.164 11.032-5.658 18.094-5.634 7.898.028 16.52 1.104 22.73.114Z"/><path d="M58.064 10.645c3.652-.508 7.116 4.108 10.678 12.68 3.562 8.572 7.129 21.136 11.68 35.296 2.552 7.94 5.354 16.236 8.396 24.174 3.042 7.938 6.392 15.448 9.658 21.958 5.972 11.906 13.178 20.308 19.302 23.756 6.274 3.534 4.62 7.124-2.328 11.36-6.946 4.236-19.358 8.714-30.09 5.418-9.376-2.88-17.208-10.048-24.814-20.024-4.412-5.786-8.8-12.698-13.096-20.016-4.296-7.318-8.498-15.052-12.552-22.442-4.056-7.39-7.978-14.414-11.658-20.438-7.476-12.242-11.502-21.78-12.073-29.578-.573-7.798 2.267-13.614 6.21-17.12 4.687-4.166 10.757-5.6 17.79-5.478 7.843.136 16.52 1.34 22.897.454Z"/><path d="M59.256 12.43c3.714-.445 7.231 4.167 10.854 12.673 3.624 8.506 7.266 20.952 11.948 34.854 2.637 7.832 5.544 15.976 8.698 23.718 3.153 7.744 6.602 14.936 9.9 21.262 6.012 11.532 13.184 19.716 19.247 23.058 6.235 3.434 4.601 7.114-2.319 11.538S98.272 149 87.388 146.365c-9.592-2.322-17.558-9.022-25.273-18.674-4.469-5.594-8.918-12.35-13.255-19.578-4.338-7.228-8.562-14.94-12.614-22.394-4.052-7.454-7.942-14.624-11.572-20.852-7.32-12.558-11.196-22.568-11.824-30.556-.628-7.988 2.036-13.808 5.818-17.296 4.536-4.184 10.491-5.568 17.496-5.354 7.804.236 16.537 1.556 23.092.77Z"/><path d="M60.452 14.22c3.778-.391 7.354 4.215 11.047 12.647 3.69 8.432 7.416 20.744 12.239 34.37 2.73 7.712 5.744 15.692 9.017 23.228 3.27 7.534 6.786 14.416 10.113 20.564 6.047 11.176 13.177 19.152 19.18 22.398 6.194 3.348 4.583 7.114-2.306 11.718-6.886 4.604-19.227 10.162-30.262 8.188-9.811-1.756-17.914-7.982-25.746-17.298-4.534-5.394-9.044-11.986-13.431-19.112-4.388-7.126-8.645-14.8-12.701-22.298-4.055-7.498-7.923-14.798-11.511-21.212-7.183-12.838-10.916-23.296-11.594-31.482-.68-8.186 1.815-14.028 5.445-17.51 4.393-4.214 10.237-5.558 17.22-5.26 7.757.328 16.555 1.758 23.29 1.06Z"/><path d="M61.654 16.015c3.849-.342 7.484 4.248 11.252 12.596 3.769 8.348 7.582 20.512 12.553 33.842 2.825 7.582 5.956 15.384 9.35 22.696 3.398 7.312 6.94 13.898 10.293 19.878 6.074 10.832 13.156 18.614 19.098 21.778 6.152 3.274 4.566 7.126-2.285 11.9s-19.107 10.794-30.29 9.478c-10.038-1.18-18.283-6.924-26.235-15.892-4.6-5.188-9.18-11.604-13.622-18.616-4.442-7.01-8.74-14.63-12.807-22.156-4.071-7.526-7.923-14.936-11.48-21.522-7.06-13.082-10.663-23.958-11.39-32.352-.73-8.394 1.605-14.272 5.089-17.76 4.254-4.258 9.993-5.57 16.956-5.196 7.724.414 16.59 1.942 23.518 1.326Z"/><path d="M62.864 17.811c3.918-.298 7.622 4.272 11.473 12.524 3.849 8.252 7.763 20.254 12.887 33.268 2.928 7.44 6.21 15.134 9.7 22.11 3.49 6.976 7.06 13.404 10.438 19.224 6.099 10.506 13.124 18.104 19.008 21.196 6.112 3.212 4.553 7.148-2.258 12.084-6.81 4.936-18.943 11.36-30.28 10.702-10.268-.596-18.654-5.852-26.736-14.46-4.67-4.974-9.322-11.208-13.826-18.092-4.504-6.882-8.847-14.434-12.94-21.97-4.092-7.536-7.94-15.038-11.47-21.782-6.96-13.29-10.441-24.552-11.214-33.162-.771-8.61 1.408-14.542 4.75-18.044 4.118-4.316 9.758-5.604 16.708-5.164 7.695.49 16.632 2.11 23.76 1.566Z"/><path d="M64.084 19.607c3.994-.262 7.77 4.282 11.708 12.43 3.938 8.148 7.96 19.97 13.246 32.65 3.037 7.284 6.48 14.716 10.037 21.452 3.56 6.736 7.177 12.962 10.574 18.628 6.115 10.194 13.084 17.62 18.907 20.652 6.072 3.162 4.54 7.182-2.226 12.268-6.767 5.086-18.74 11.854-30.228 11.854-10.502 0-19.037-4.766-27.25-13-4.743-4.756-9.474-10.798-14.044-17.542-4.573-6.744-8.972-14.212-13.094-21.742-4.122-7.532-7.975-15.108-11.488-21.99-6.874-13.466-10.252-25.076-11.066-33.908-.816-8.832 1.22-14.832 4.428-18.362 3.99-4.388 9.534-5.662 16.475-5.16 7.667.552 16.683 2.252 24.021 1.77Z"/><path d="M65.316 21.403c4.072-.23 7.926 4.278 11.96 12.31 4.034 8.03 8.17 19.658 13.628 31.986a257.509 257.509 0 0 0 10.356 20.766c3.624 6.502 7.283 12.532 10.7 18.05 6.127 9.896 13.032 17.16 18.796 20.144 6.03 3.122 4.532 7.224-2.184 12.454s-18.504 11.156-30.132 12.844c-10.731 1.558-19.428-3.576-27.78-11.43-4.818-4.53-9.632-10.372-14.276-16.966-4.644-6.592-9.108-13.962-13.268-21.472-4.16-7.51-8.026-15.142-11.53-22.148-6.806-13.608-10.091-25.526-10.948-34.59-.856-9.062 1.042-15.144 4.122-18.71 3.867-4.476 9.319-5.74 16.256-5.188 7.644.608 16.74 2.378 24.3 1.95Z"/><path d="M66.558 23.195c4.154-.206 8.092 4.26 12.228 12.164 4.136 7.902 8.396 19.32 14.034 31.272 3.272 6.938 6.968 13.78 10.654 20.056 3.686 6.276 7.384 12.116 10.818 17.494 6.134 9.612 12.97 16.726 18.674 19.672 5.988 3.094 4.524 7.276-2.138 12.64-6.662 5.364-18.382 11.512-30.012 13.678-10.834 2.018-19.81-2.296-28.308-9.756-4.898-4.3-9.796-9.934-14.52-16.366s-9.258-13.69-13.464-21.16c-4.206-7.472-8.094-15.144-11.596-22.258-6.756-13.72-9.966-25.902-10.86-35.202-.894-9.3.872-15.476 3.83-19.088 3.748-4.576 9.114-5.84 16.052-5.244 7.634.654 16.82 2.486 24.608 2.098Z"/><path d="M67.816 24.983c4.242-.188 8.267 4.228 12.515 11.99 4.245 7.762 8.637 18.952 14.462 30.512 3.399 6.744 7.183 13.276 10.927 19.334 3.744 6.056 7.48 11.714 10.928 16.958 6.136 9.34 12.9 16.316 18.546 19.236 5.948 3.076 4.52 7.336-2.082 12.826-6.604 5.49-18.248 11.842-29.87 14.456-10.932 2.458-20.174-1.028-28.822-8.086-7.47-6.094-14.961-15.232-21.822-25.712-6.86-10.478-13.055-22.354-18.322-33.164-6.72-13.798-9.874-26.2-10.804-35.742-.93-9.542.71-15.828 3.552-19.496 3.635-4.688 8.918-5.962 15.862-5.332 7.622.696 16.898 2.576 24.93 2.22Z"/><path d="M69.088 26.763c4.332-.178 8.452 4.182 12.815 11.79 4.365 7.608 8.897 18.554 14.916 29.7 3.533 6.54 7.374 12.758 11.174 18.602 3.801 5.844 7.573 11.326 11.03 16.444 6.132 9.082 12.821 15.93 18.41 18.834 5.905 3.07 4.518 7.406-2.02 13.014-6.54 5.608-18.103 12.146-29.71 15.182-11.025 2.882-20.523.22-29.325-6.424-7.597-5.734-15.238-14.55-22.216-24.832-6.978-10.282-13.257-22.104-18.544-33.03-6.702-13.846-9.816-26.416-10.78-36.206-.964-9.79.558-16.198 3.288-19.928 3.524-4.814 8.732-6.106 15.686-5.448 7.616.72 16.992 2.64 25.276 2.302Z"/><path d="M70.376 28.533c4.428-.174 8.647 4.118 13.136 11.56 4.488 7.442 9.22 18.216 15.39 28.826 3.64 6.26 7.541 12.248 11.394 17.884 3.853 5.638 7.655 10.952 11.122 15.95 6.13 8.84 12.737 15.568 18.264 18.464 5.866 3.072 4.52 7.486-1.95 13.202-6.472 5.718-17.944 12.428-29.533 15.856-11.11 3.286-20.849 1.444-29.81-4.778-7.727-5.364-15.524-13.848-22.63-23.916-7.11-10.066-13.48-21.812-18.8-32.826-6.699-13.866-10.197-25.598-10.81-36.556-.61-10.958.426-16.622 3.052-20.426 3.421-4.954 8.555-6.268 15.525-5.594 7.622.742 17.102 2.69 25.65 2.354Z"/><path d="M71.684 30.291c4.528-.178 8.856 4.038 13.474 11.3 4.62 7.264 9.58 17.756 15.864 27.88 3.728 6.008 7.7 11.758 11.604 17.196 3.904 5.438 7.736 10.592 11.208 15.476 6.116 8.606 12.644 15.228 18.114 18.126 5.824 3.086 4.526 7.572-1.872 13.392-6.398 5.82-17.776 12.688-29.334 16.482-11.192 3.672-21.158 2.638-30.284-3.154-7.86-4.988-15.816-13.13-23.06-22.962-7.246-9.834-13.722-21.476-19.09-32.56-6.71-13.856-10.212-25.746-10.894-36.78-.68-11.036.326-17.108 2.85-20.992 3.32-5.106 8.384-6.452 15.376-5.768 7.63.744 17.218 2.712 26.044 2.364Z"/><path d="M73.01 32.035c4.632-.19 9.074 3.938 13.832 11.008 4.76 7.07 9.941 17.228 16.334 26.88 3.813 5.76 7.855 11.278 11.806 16.524 3.952 5.244 7.808 10.242 11.286 15.02 6.104 8.39 12.544 14.914 17.956 17.822 5.782 3.108 4.532 7.666-1.786 13.58-6.32 5.914-17.594 12.924-29.116 17.058-11.266 4.042-21.446 3.798-30.74-1.554-7.998-4.606-16.118-12.394-23.509-21.978-7.39-9.586-13.985-21.102-19.409-32.228-6.736-13.818-10.257-25.844-11.01-36.948-.754-11.102.224-17.586 2.654-21.558 3.222-5.27 8.223-6.656 15.242-5.972 7.64.748 17.346 2.72 26.46 2.346Z"/><path d="M74.358 33.763c4.74-.208 9.304 3.822 14.21 10.686 4.908 6.864 10.302 16.638 16.794 25.832 3.896 5.518 8.004 10.812 12 15.87 3.996 5.058 7.878 9.908 11.356 14.586 6.084 8.182 12.44 14.62 17.794 17.546 5.74 3.138 4.542 7.768-1.694 13.768-6.235 6-17.4 13.14-28.878 17.59-11.332 4.394-21.716 4.92-31.18.016-8.137-4.216-16.427-11.642-23.973-20.964-7.547-9.32-14.271-20.686-19.765-31.834-6.775-13.752-10.324-25.894-11.156-37.054-.832-11.16.124-18.052 2.463-22.12 3.13-5.448 8.07-6.88 15.12-6.206 7.665.732 17.493 2.698 26.909 2.284Z"/><path d="M75.73 35.47c4.854-.237 9.544 3.687 14.608 10.327 5.062 6.64 10.659 15.994 17.245 24.744 3.975 5.282 8.147 10.358 12.187 15.236 4.038 4.878 7.94 9.588 11.42 14.172 6.062 7.988 12.33 14.348 17.626 17.3 5.698 3.178 4.557 7.876-1.592 13.956-6.148 6.078-17.194 13.334-28.62 18.076-11.392 4.728-21.962 5.998-31.603 1.55-8.283-3.82-16.747-10.876-24.455-19.918-7.708-9.04-14.574-20.234-20.146-31.382-6.83-13.662-10.418-25.894-11.332-37.104-.914-11.208.02-18.504 2.27-22.674 3.042-5.636 7.93-7.124 15.016-6.468 7.685.712 17.645 2.662 27.376 2.186Z"/><path d="M77.126 37.157c4.974-.274 9.8 3.53 15.025 9.934 5.227 6.404 11.004 15.306 17.681 23.62 4.054 5.052 8.287 9.914 12.365 14.618 4.078 4.706 7.998 9.282 11.477 13.776 6.036 7.804 12.214 14.096 17.452 17.086 5.657 3.226 4.571 7.99-1.48 14.142-6.052 6.152-16.974 13.508-28.34 18.52-11.445 5.046-22.189 7.028-32.01 3.044-8.43-3.418-17.07-10.098-24.948-18.844s-14.894-19.746-20.558-30.87c-6.896-13.546-10.536-25.85-11.54-37.096-1.002-11.248-.089-18.938 2.08-23.216 2.958-5.838 7.794-7.384 14.924-6.758 7.714.678 17.808 2.598 27.872 2.044Z"/><path d="M78.548 38.817c5.1-.32 10.065 3.354 15.466 9.504 5.398 6.15 11.336 14.576 18.094 22.47 4.131 4.826 8.421 9.482 12.538 14.02 4.116 4.54 8.051 8.988 11.526 13.4 6.008 7.632 12.094 13.866 17.275 16.896 5.617 3.282 4.593 8.112-1.36 14.33-5.955 6.218-16.743 13.66-28.04 18.922-11.489 5.348-22.394 8.006-32.399 4.496-8.58-3.012-17.402-9.306-25.456-17.744-8.054-8.438-15.234-19.226-21-30.304-6.976-13.404-10.68-25.758-11.776-37.034-1.097-11.276-.202-19.35 1.888-23.742 2.878-6.05 7.666-7.664 14.844-7.076 7.754.638 17.992 2.514 28.4 1.862Z"/><path d="M79.998 40.45c5.231-.373 10.348 3.157 15.928 9.037 5.58 5.88 11.654 13.816 18.49 21.302 8.41 9.21 17.338 17.812 24.271 26.484 5.977 7.472 11.968 13.656 17.096 16.734 5.574 3.346 4.614 8.24-1.233 14.514-5.849 6.276-16.498 13.796-27.72 19.284-11.522 5.636-22.574 8.93-32.767 5.898-8.733-2.598-17.74-8.504-25.977-16.62-8.236-8.118-15.59-18.672-21.468-29.682-7.07-13.24-10.847-25.622-12.042-36.914-1.196-11.294-.322-19.738 1.692-24.248 2.8-6.274 7.545-7.962 14.778-7.422 7.796.582 18.181 2.404 28.952 1.634Z"/><path d="M81.478 42.053c5.368-.438 10.642 2.934 16.41 8.53 5.77 5.596 11.95 13.03 18.859 20.122 8.553 8.782 17.545 17.054 24.465 25.584 5.94 7.322 11.84 13.464 16.912 16.598 5.532 3.418 4.64 8.372-1.098 14.7-5.738 6.328-16.242 13.91-27.38 19.606-11.548 5.904-22.731 9.794-33.116 7.248-8.89-2.178-18.084-7.688-26.51-15.472-8.426-7.784-15.96-18.086-21.964-29.006-7.174-13.052-11.036-25.44-12.336-36.74-1.3-11.3-.45-20.098 1.492-24.734 2.726-6.508 7.434-8.278 14.728-7.796 7.847.518 18.394 2.272 29.538 1.36Z"/><path d="M82.988 43.623c5.513-.514 10.948 2.658 16.918 7.984 5.97 5.326 12.225 12.228 19.198 18.938 8.693 8.362 17.744 16.322 24.649 24.722 5.899 7.182 11.708 13.292 16.723 16.486 5.49 3.496 4.67 8.508-.954 14.882-5.622 6.372-15.97 14.008-27.017 19.89-11.567 6.16-22.87 10.596-33.447 8.546-9.05-1.754-18.431-6.864-27.053-14.306-8.621-7.44-16.347-17.47-22.485-28.282-7.29-12.842-11.248-25.216-12.658-36.514-1.41-11.298-.588-20.428 1.286-25.194 2.656-6.752 7.33-8.61 14.689-8.198 7.903.448 18.615 2.122 30.15 1.046Z"/><path d="M84.534 45.155c5.662-.598 11.326 2.462 17.438 7.394 6.115 4.932 12.48 11.418 19.516 17.758 8.828 7.954 17.935 15.616 24.817 23.898 5.859 7.054 11.574 13.138 16.534 16.4 5.447 3.582 4.702 8.65-.801 15.062-5.502 6.412-15.688 14.088-26.634 20.14-11.571 6.4-22.98 11.33-33.758 9.782-9.212-1.324-18.786-6.03-27.607-13.116-8.822-7.086-16.748-16.828-23.028-27.508C43.595 102.355 39.528 90.013 38 78.73c-1.527-11.282-.738-20.726 1.07-25.624 2.589-7.006 7.232-8.96 14.665-8.626 7.966.36 18.85 1.938 30.798.674Z"/><path d="M86.114 46.647c5.818-.694 11.71 2.196 17.962 6.742 6.253 4.546 12.726 10.628 19.818 16.61 8.96 7.556 18.115 14.936 24.972 23.112 5.816 6.934 11.436 13.004 16.343 16.336 5.405 3.672 4.737 8.796-.64 15.242-5.373 6.446-15.39 14.15-26.228 20.356-5.785 3.312-11.51 6.152-17.201 8.146-5.692 1.992-11.356 3.33-16.847 2.81-9.378-.888-19.147-5.188-28.172-11.91-9.027-6.722-17.162-16.158-23.597-26.688-7.554-12.36-11.74-24.644-13.388-35.9-1.648-11.256-.898-20.988.85-26.024 2.524-7.27 7.14-9.324 14.652-9.08 8.035.258 19.1 1.726 31.476.248Z"/><path d="M87.732 48.097c5.982-.802 12.094 1.868 18.484 6.034 6.388 4.168 12.964 9.856 20.108 15.494 9.088 7.17 18.284 14.282 25.116 22.36 5.77 6.824 11.296 12.886 16.15 16.296 5.362 3.77 4.776 8.946-.465 15.418-5.243 6.474-15.082 14.196-25.807 20.538-5.777 3.416-11.512 6.38-17.244 8.528-5.732 2.148-11.482 3.798-17.073 3.536-9.546-.446-19.51-4.338-28.745-10.688-9.236-6.348-17.587-15.466-24.188-25.824-7.702-12.09-12.016-24.298-13.792-35.518-1.775-11.218-1.071-21.212.616-26.39 2.46-7.544 7.054-9.704 14.652-9.562 8.11.15 19.366 1.496 32.188-.222Z"/><path d="M89.388 49.5c6.152-.92 12.478 1.481 19 5.277 6.52 3.798 13.196 9.102 20.386 14.408 9.21 6.796 18.446 13.656 25.246 21.648 5.722 6.724 11.154 12.784 15.954 16.276 5.32 3.872 4.82 9.098-.286 15.592-5.104 6.494-14.758 14.226-25.359 20.686-5.765 3.514-11.503 6.594-17.271 8.89-5.768 2.296-11.574 3.822-17.292 4.172-9.752.6-19.878-3.438-29.328-9.406s-18.026-14.75-24.798-24.92c-7.86-11.8-12.315-23.916-14.224-35.086-1.91-11.17-1.26-21.4.372-26.72 2.4-7.826 6.976-10.098 14.666-10.07 8.194.03 19.648 1.24 32.934-.748Z"/><path d="M91.084 50.849c6.33-1.052 12.857 1.044 19.508 4.48 6.647 3.434 13.418 8.368 20.65 13.352 9.331 6.432 18.598 13.056 25.367 20.972 5.672 6.632 11.013 12.698 15.758 16.278 5.28 3.98 4.866 9.252-.095 15.762-4.962 6.51-14.422 14.24-24.892 20.804-5.748 3.606-11.488 6.792-17.288 9.23-5.8 2.436-11.672 4.134-17.496 4.704-9.924.972-20.254-2.478-29.922-8.058s-18.475-14.014-25.43-23.976c-8.028-11.494-12.63-23.494-14.68-34.602-2.05-11.11-1.462-21.546.114-27.012 2.342-8.116 6.904-10.508 14.692-10.604 8.283-.098 19.943.958 33.714-1.33Z"/><path d="M92.826 52.147c6.515-1.194 13.23.564 20.003 3.646 6.77 3.082 13.632 7.652 20.9 12.328 9.45 6.078 18.743 12.482 25.478 20.334 5.617 6.55 10.867 12.628 15.56 16.298 5.238 4.094 4.915 9.41.104 15.93-4.813 6.52-14.074 14.24-24.404 20.894-5.725 3.688-11.46 6.976-17.29 9.546-5.83 2.57-11.764 4.432-17.693 5.214-10.094 1.33-20.636-1.536-30.525-6.724-9.89-5.186-18.933-13.26-26.08-22.994-8.202-11.172-12.966-23.036-15.162-34.074-2.197-11.038-1.682-21.648-.157-27.262 2.287-8.414 6.838-10.932 14.733-11.162 8.382-.244 20.258.644 34.533-1.974Z"/><path d="M94.61 53.385c6.708-1.35 13.59.048 20.484 2.784 6.894 2.736 13.838 6.954 21.142 11.336 9.562 5.736 18.878 11.938 25.576 19.734 5.565 6.476 10.722 12.574 15.364 16.336 5.194 4.21 4.968 9.568.308 16.096-4.658 6.526-13.71 14.226-23.894 20.956-5.696 3.764-11.421 7.146-17.278 9.842-5.855 2.696-11.848 4.716-17.878 5.698-10.258 1.672-21.021-.624-31.134-5.412-10.112-4.788-19.398-12.488-26.746-21.978-8.385-10.832-13.322-22.544-15.67-33.498-2.348-10.954-1.918-21.706-.442-27.47 2.23-8.72 6.778-11.368 14.784-11.746 8.483-.402 20.584.304 35.384-2.678Z"/><path d="M96.442 54.563c6.908-1.522 13.937-.496 20.946 1.902 7.01 2.398 14.038 6.276 21.37 10.374 9.672 5.406 19.004 11.418 25.663 19.17 5.507 6.412 10.575 12.532 15.166 16.392 5.15 4.332 5.023 9.73.525 16.256-4.498 6.526-13.336 14.198-23.363 20.99-5.661 3.834-11.374 7.304-17.253 10.12-5.878 2.814-11.926 4.984-18.054 6.16-10.418 2.002-21.414.26-31.752-4.124-10.338-4.384-19.872-11.702-27.428-20.932-8.578-10.48-13.694-22.016-16.2-32.876-2.506-10.858-2.17-21.718-.744-27.634 2.178-9.032 6.723-11.816 14.849-12.354 4.296-.284 9.463-.144 15.53-.508 6.07-.364 13.07-1.246 20.745-2.936Z"/><path d="M98.322 55.673c7.118-1.704 14.263-1.064 21.387 1.006 7.124 2.07 14.229 5.618 21.586 9.444 9.779 5.086 19.122 10.926 25.739 18.642 5.45 6.354 10.43 12.506 14.969 16.464 5.109 4.456 5.084 9.89.75 16.412-4.334 6.522-12.95 14.156-22.815 20.998-5.62 3.896-11.316 7.448-17.212 10.376-5.896 2.926-11.998 5.24-18.22 6.604-10.574 2.316-21.81 1.11-32.375-2.868-10.567-3.978-20.353-10.902-28.124-19.856a77.765 77.765 0 0 1-16.752-32.21c-2.668-10.752-2.443-21.686-1.063-27.752 2.126-9.35 6.672-12.276 14.924-12.988 4.356-.376 9.614-.336 15.83-.83 6.217-.492 13.418-1.534 21.376-3.442Z"/><path d="M100.252 56.715c7.304-1.924 14.567-1.646 21.804.106 7.234 1.75 14.414 4.976 21.792 8.544 9.883 4.78 19.232 10.462 25.807 18.152 5.393 6.306 10.283 12.494 14.771 16.552 5.067 4.582 5.147 10.052.983 16.564-4.16 6.51-12.546 14.1-22.243 20.98-5.572 3.952-11.248 7.58-17.156 10.612-5.91 3.034-12.063 5.482-18.376 7.024-10.722 2.618-22.212 1.922-33.006-1.646-10.794-3.566-20.84-10.09-28.836-18.754a74.992 74.992 0 0 1-17.328-31.502c-2.84-10.632-2.733-21.604-1.399-27.822 2.075-9.674 6.626-12.746 15.013-13.642 4.418-.472 9.772-.54 16.142-1.176a141.733 141.733 0 0 0 22.032-3.992Z"/><path d="M102.216 57.665c7.46-2.184 14.868-2.218 22.21-.78 7.34 1.438 14.59 4.356 21.983 7.676 9.985 4.484 19.336 10.026 25.867 17.698 5.33 6.262 10.133 12.492 14.574 16.656 5.024 4.714 5.214 10.214 1.225 16.712-3.985 6.496-12.13 14.034-21.65 20.94-5.52 4.002-11.167 7.698-17.087 10.83-5.918 3.132-12.118 5.712-18.522 7.424-10.867 2.906-22.62 2.694-33.644-.46-11.024-3.154-21.33-9.27-29.557-17.628-9.195-9.342-14.91-20.252-17.927-30.754-3.016-10.502-3.04-21.474-1.752-27.844 2.022-10 6.584-13.228 15.112-14.322 4.483-.574 9.94-.76 16.468-1.548 6.528-.788 14.256-2.128 22.7-4.6Z"/><path d="M104.214 58.527c7.611-2.438 15.162-2.78 22.605-1.644 7.445 1.136 14.761 3.756 22.168 6.84 10.082 4.198 19.431 9.616 25.915 17.282 5.27 6.23 9.988 12.502 14.375 16.772 4.985 4.846 5.285 10.376 1.48 16.854-3.808 6.478-11.707 13.956-21.043 20.878-5.458 4.046-11.074 7.804-16.998 11.03-5.924 3.226-12.166 5.926-18.658 7.804-11.006 3.182-23.032 3.424-34.288.68-11.256-2.742-21.827-8.444-30.288-16.48-9.414-8.94-15.348-19.606-18.546-29.966-3.199-10.36-3.368-21.294-2.124-27.814 1.972-10.334 6.548-13.72 15.226-15.024 4.554-.684 10.114-.994 16.81-1.944 6.692-.95 14.698-2.492 23.366-5.268Z"/><path d="M106.24 59.3c7.763-2.687 15.45-3.33 22.994-2.485 7.544.842 14.924 3.174 22.338 6.036 10.179 3.926 19.517 9.236 25.952 16.902 5.206 6.202 9.84 12.524 14.18 16.9 4.94 4.98 5.356 10.536 1.738 16.992-3.618 6.454-11.265 13.866-20.412 20.794-5.39 4.084-10.972 7.9-16.897 11.212-5.926 3.312-12.208 6.132-18.783 8.166-11.137 3.448-23.452 4.11-34.938 1.778-11.485-2.33-22.321-7.612-31.027-15.318-9.638-8.528-15.8-18.932-19.187-29.138-3.386-10.206-3.718-21.064-2.516-27.734 1.922-10.668 6.516-14.22 15.35-15.748 4.626-.8 10.299-1.244 17.166-2.368 6.872-1.126 15.154-2.91 24.042-5.988Z"/><path d="M108.298 59.99c7.908-2.931 15.731-3.865 23.372-3.307 7.64.558 15.08 2.614 22.5 5.262 10.27 3.666 19.596 8.882 25.983 16.56 5.145 6.182 9.695 12.558 13.987 17.042 4.897 5.116 5.433 10.694 2.006 17.122-3.426 6.426-10.814 13.764-19.76 20.688-5.318 4.116-10.859 7.982-16.78 11.376-5.924 3.394-12.24 6.324-18.894 8.51-11.265 3.702-23.878 4.748-35.595 2.828-11.715-1.918-22.819-6.778-31.775-14.14-9.864-8.108-16.264-18.234-19.844-28.274-3.58-10.04-4.089-20.784-2.929-27.602 1.871-11.006 6.487-14.728 15.485-16.494 4.704-.922 10.492-1.506 17.54-2.816 7.044-1.314 15.594-3.378 24.704-6.754Z"/><path d="M110.38 60.599c8.054-3.17 16.008-4.39 23.742-4.108 7.734.282 15.228 2.072 22.65 4.52 10.358 3.418 19.668 8.558 26.005 16.254 5.08 6.168 9.548 12.602 13.792 17.19 4.857 5.252 5.513 10.852 2.283 17.248-3.23 6.394-10.35 13.654-19.09 20.564-5.238 4.14-10.733 8.054-16.649 11.522s-12.265 6.504-18.994 8.836c-7.588 2.628-16.046 4.112-24.185 4.382-8.14.268-16.176-.744-23.775-3.01-7.597-2.266-14.683-5.824-20.823-10.496-10.099-7.68-16.74-17.514-20.52-27.376-3.78-9.864-4.476-20.454-3.36-27.418 1.818-11.346 6.46-15.244 15.632-17.26 4.786-1.052 10.693-1.786 17.928-3.294 7.23-1.51 16.04-3.886 25.364-7.554Z"/><path d="M112.492 61.127c8.196-3.402 16.278-4.9 24.103-4.884 7.824.016 15.37 1.55 22.792 3.81 10.446 3.182 19.73 8.264 26.017 15.986 5.015 6.158 9.402 12.654 13.599 17.35 4.813 5.39 5.595 11.006 2.565 17.364-3.028 6.358-9.874 13.532-18.404 20.422-5.151 4.16-10.594 8.114-16.497 11.652-5.904 3.54-12.284 6.674-19.082 9.144-7.664 2.782-16.28 4.45-24.611 4.942-8.332.492-16.494-.224-24.257-2.218-7.765-1.994-15.031-5.278-21.344-9.706-10.334-7.248-17.23-16.772-21.215-26.446-3.985-9.674-4.886-20.072-3.813-27.18 1.763-11.686 6.437-15.766 15.79-18.046 4.872-1.188 10.904-2.082 18.332-3.8 7.427-1.718 16.488-4.432 26.025-8.39Z"/><path d="M114.626 61.581c8.334-3.626 16.542-5.394 24.451-5.636 7.91-.242 15.507 1.05 22.923 3.132 10.53 2.958 19.79 7.998 26.023 15.754 4.95 6.158 9.258 12.714 13.407 17.518 4.771 5.526 5.681 11.158 2.86 17.476-2.822 6.32-9.387 13.402-17.698 20.262-5.059 4.174-10.445 8.162-16.332 11.766-5.889 3.604-12.292 6.834-19.16 9.434-7.737 2.93-16.504 4.772-25.025 5.476-8.519.702-16.823.266-24.754-1.456-7.929-1.722-15.376-4.73-21.863-8.908-10.572-6.808-17.728-16.01-21.927-25.484-4.197-9.474-5.317-19.64-4.288-26.89C54.954 82 59.663 77.731 69.201 75.171c4.961-1.332 11.124-2.392 18.755-4.334 7.63-1.942 16.922-5.014 26.67-9.256Z"/><path d="M116.786 61.961c8.473-3.846 16.803-5.876 24.795-6.364 7.993-.49 15.634.568 23.042 2.486 10.61 2.746 19.842 7.76 26.02 15.56 4.88 6.16 9.116 12.784 13.217 17.694 4.73 5.662 5.77 11.306 3.158 17.58-2.612 6.276-8.887 13.262-16.971 20.084-4.958 4.184-10.282 8.2-16.151 11.864-5.87 3.664-12.294 6.982-19.223 9.708-7.803 3.07-16.723 5.078-25.43 5.982-8.707.902-17.171.722-25.265-.73-8.093-1.452-15.721-4.182-22.387-8.104-10.815-6.364-18.237-15.228-22.653-24.492-4.416-9.264-5.77-19.16-4.782-26.546 1.654-12.368 6.4-16.826 16.139-19.68 5.053-1.482 11.353-2.72 19.19-4.898 7.837-2.176 17.348-5.624 27.3-10.144Z"/><path d="M118.968 62.273c8.605-4.058 17.054-6.342 25.128-7.068 8.074-.728 15.758.108 23.152 1.87 10.69 2.548 19.886 7.552 26.01 15.402 4.814 6.17 8.972 12.86 13.025 17.876 4.69 5.798 5.861 11.45 3.467 17.678-2.396 6.228-8.378 13.114-16.23 19.89-4.852 4.186-10.109 8.228-15.952 11.946a121.12 121.12 0 0 1-19.274 9.968c-7.864 3.204-16.93 5.37-25.824 6.462-8.892 1.092-17.532 1.144-25.792-.04-8.258-1.184-16.066-3.636-22.914-7.3-11.058-5.916-18.754-14.43-23.394-23.472-4.638-9.042-6.242-18.628-5.298-26.15 1.596-12.704 6.384-17.362 16.328-20.524 5.152-1.638 11.591-3.064 19.648-5.49 8.056-2.426 17.76-6.256 27.92-11.048Z"/><path d="M121.17 62.517c8.735-4.264 17.3-6.792 25.45-7.748 8.15-.954 15.873-.332 23.254 1.288 10.766 2.362 19.922 7.372 25.991 15.282 4.748 6.186 8.828 12.942 12.838 18.062 4.647 5.932 5.954 11.588 3.78 17.766-2.173 6.178-7.855 12.958-15.469 19.684-4.739 4.184-9.924 8.246-15.739 12.014a123.782 123.782 0 0 1-19.313 10.212c-7.922 3.33-17.13 5.646-26.204 6.916-9.074 1.27-17.91 1.528-26.332.608-8.42-.92-16.41-3.092-23.44-6.492-11.302-5.468-19.28-13.618-24.148-22.428-4.868-8.81-6.736-18.05-5.836-25.7 1.536-13.04 6.37-17.9 16.53-21.388 5.251-1.804 11.842-3.424 20.12-6.114 8.28-2.69 18.16-6.906 28.518-11.962Z"/><path d="M123.392 62.697c8.864-4.462 17.54-7.228 25.764-8.4 8.224-1.174 15.984-.75 23.346.738 10.84 2.188 19.952 7.222 25.968 15.198 4.682 6.206 8.686 13.032 12.65 18.254 4.604 6.062 6.052 11.724 4.102 17.846-1.95 6.124-7.326 12.796-14.694 19.462-4.618 4.176-9.726 8.252-15.508 12.066a126.307 126.307 0 0 1-19.34 10.438c-7.974 3.452-17.324 5.91-26.576 7.348-9.254 1.438-18.304 1.872-26.884 1.214-8.58-.658-16.752-2.554-23.964-5.688-11.548-5.018-19.814-12.792-24.916-21.36s-7.25-17.424-6.394-25.198c1.472-13.37 6.392-18.452 16.74-22.266 5.336-1.968 12.088-3.814 20.602-6.778 8.516-2.968 18.55-7.562 29.104-12.874Z"/><path d="M125.634 62.815c8.99-4.652 17.773-7.646 26.067-9.028a66.897 66.897 0 0 1 23.431.218c10.912 2.03 19.976 7.102 25.938 15.15 4.614 6.23 8.545 13.126 12.463 18.446 4.561 6.192 6.151 11.852 4.431 17.918-1.723 6.066-6.784 12.624-13.902 19.226-4.492 4.166-9.518 8.252-15.262 12.104-5.744 3.852-12.214 7.478-19.354 10.654-8.02 3.566-17.506 6.158-26.934 7.752-9.428 1.594-18.714 2.178-27.452 1.774-8.738-.402-17.088-2.022-24.487-4.886-11.793-4.568-20.353-11.958-25.693-20.272-5.34-8.316-7.47-17.54-6.96-24.68.886-12.39 6.363-18.96 16.945-23.128 5.45-2.146 12.357-4.208 21.113-7.464 8.756-3.252 18.908-8.22 29.656-13.784Z"/><path d="M127.892 62.877c9.112-4.836 18.002-8.048 26.364-9.63 8.362-1.58 16.184-1.522 23.504-.268 10.982 1.884 19.994 7.014 25.898 15.142 4.546 6.258 8.406 13.224 12.28 18.64 4.52 6.32 6.252 11.976 4.764 17.982-1.488 6.006-6.232 12.448-13.094 18.98a118.614 118.614 0 0 1-14.998 12.128c-5.7 3.888-12.172 7.578-19.354 10.852-8.062 3.676-17.678 6.394-27.28 8.134a144.526 144.526 0 0 1-28.034 2.286c-8.892-.152-17.42-1.5-25.002-4.094-12.038-4.118-20.898-11.112-26.484-19.164-5.584-8.052-7.906-17.144-7.522-24.174.672-12.306 6.312-19.402 17.138-23.94 5.564-2.332 12.69-4.472 21.636-8.196 8.946-3.722 19.248-8.874 30.184-14.678Z"/><path d="M130.166 62.883c9.23-5.01 18.222-8.434 26.647-10.202 8.426-1.77 16.277-1.878 23.571-.722 11.048 1.75 20.006 6.956 25.853 15.168 4.481 6.292 8.267 13.326 12.097 18.838 4.476 6.442 6.355 12.09 5.103 18.034-1.25 5.944-5.67 12.264-12.27 18.72a113.128 113.128 0 0 1-14.72 12.138c-5.65 3.92-12.122 7.67-19.34 11.038-8.099 3.78-17.84 6.616-27.61 8.494-9.77 1.878-19.569 2.804-28.632 2.762-9.06-.042-17.747-1-25.515-3.322-12.285-3.674-21.449-10.26-27.283-18.04-5.834-7.78-8.349-16.73-8.093-23.646.454-12.214 6.252-19.816 17.328-24.738 5.683-2.526 13.055-4.938 22.158-8.984 9.105-4.048 19.586-9.5 30.706-15.538Z"/><path d="M132.454 62.837c9.347-5.178 18.438-8.802 26.925-10.748 8.487-1.946 16.36-2.21 23.626-1.144 11.11 1.632 20.01 6.928 25.803 15.232 4.415 6.328 8.126 13.43 11.915 19.032 4.433 6.56 6.46 12.2 5.45 18.076-1.013 5.876-5.103 12.074-11.435 18.45-4.073 4.102-8.821 8.19-14.424 12.134-5.6 3.944-12.061 7.75-19.313 11.21-8.133 3.88-17.994 6.826-27.931 8.83-9.933 2.004-19.941 3.076-29.221 3.224-9.281.148-18.086-.548-26.04-2.6-12.524-3.232-22-9.402-28.086-16.902-6.088-7.498-8.804-16.296-8.676-23.098.229-12.118 6.178-20.2 17.517-25.526 5.809-2.728 13.42-5.44 22.676-9.804 9.26-4.358 19.914-10.106 31.214-16.366Z"/><path d="M134.756 62.743c9.46-5.338 18.646-9.152 27.191-11.266 8.546-2.114 16.441-2.522 23.674-1.532 11.177 1.526 20.011 6.93 25.746 15.334 4.35 6.368 7.99 13.538 11.733 19.226 4.391 6.674 6.572 12.302 5.802 18.11-.768 5.808-4.524 11.878-10.584 18.17-3.922 4.07-8.568 8.152-14.113 12.118-5.544 3.968-11.995 7.826-19.27 11.37-8.159 3.974-18.139 7.024-28.236 9.146-10.095 2.122-20.307 3.326-29.805 3.652-9.498.324-18.44-.13-26.576-1.91-12.766-2.794-22.554-8.542-28.9-15.752-6.347-7.208-9.268-15.846-9.268-22.53 0-12.01 6.096-20.552 17.706-26.296 5.936-2.936 13.778-5.976 23.188-10.652 9.41-4.68 20.237-10.714 31.712-17.188Z"/><path d="M137.07 62.603c9.57-5.488 18.849-9.484 27.448-11.754 8.6-2.272 16.514-2.81 23.714-1.89 11.236 1.436 20.004 6.962 25.685 15.47 4.28 6.414 7.849 13.648 11.549 19.416 4.35 6.782 6.682 12.394 6.158 18.13-.522 5.736-3.938 11.678-9.72 17.88-3.762 4.036-8.302 8.104-13.784 12.09-5.482 3.986-11.918 7.89-19.22 11.516-8.18 4.062-18.271 7.212-28.523 9.44a189.584 189.584 0 0 1-30.381 4.042c-9.714.488-18.81.258-27.13-1.256-13.004-2.364-23.108-7.682-29.718-14.592-6.61-6.91-9.74-15.378-9.87-21.942-.233-11.898 6.006-20.876 17.895-27.056 6.067-3.154 14.13-6.54 23.69-11.522 9.565-4.978 20.563-11.294 32.207-17.972Z"/><path d="M139.396 62.421c9.676-5.628 19.042-9.796 27.694-12.214 8.652-2.418 16.582-3.078 23.746-2.214 11.294 1.36 19.99 7.026 25.618 15.646 4.216 6.46 7.713 13.756 11.37 19.604 4.308 6.886 6.794 12.478 6.52 18.14-.272 5.662-3.344 11.472-8.844 17.582-3.598 3.998-8.024 8.05-13.442 12.048-5.416 3.998-11.834 7.948-19.152 11.65-8.196 4.148-18.394 7.386-28.798 9.714-10.404 2.328-21.016 3.76-30.943 4.398-9.93.638-19.197.608-27.697-.64-13.236-1.942-23.662-6.822-30.54-13.426-6.876-6.604-10.221-14.894-10.482-21.334-.474-11.776 5.9-21.168 18.08-27.802 6.204-3.38 14.476-7.126 24.184-12.41 9.712-5.282 20.874-11.872 32.686-18.742Z"/><path d="M141.73 62.197c9.78-5.76 19.232-10.088 27.932-12.642 8.7-2.554 16.644-3.322 23.772-2.508 11.348 1.298 19.972 7.122 25.544 15.856 4.152 6.51 7.574 13.866 11.19 19.784 4.266 6.984 6.906 12.554 6.886 18.14-.02 5.586-2.742 11.262-7.956 17.274-3.428 3.956-7.736 7.986-13.084 11.996-5.346 4.008-11.74 7.996-19.07 11.772-8.208 4.226-18.506 7.55-29.056 9.968s-21.356 3.948-31.494 4.72c-10.138.774-19.596.918-28.278-.066-13.466-1.528-24.216-5.966-31.364-12.256s-10.71-14.392-11.102-20.706c-.72-11.644 5.786-21.434 18.267-28.536 6.345-3.612 14.807-7.732 24.66-13.308 9.855-5.576 21.18-12.434 33.153-19.488Z"/><path d="M144.074 61.939c9.88-5.884 19.412-10.362 28.16-13.04 8.746-2.678 16.7-3.544 23.788-2.766 11.403 1.25 19.948 7.248 25.466 16.104 4.088 6.564 7.437 13.976 11.01 19.96 4.224 7.074 7.022 12.618 7.257 18.126.233 5.508-2.137 11.048-7.057 16.96-3.252 3.91-7.437 7.914-12.71 11.93-5.271 4.014-11.638 8.038-18.976 11.882-8.211 4.302-18.608 7.704-29.3 10.202s-21.686 4.112-32.032 5.008c-10.345.896-20.013 1.188-28.872.46-13.692-1.124-24.768-5.116-32.19-11.084-7.422-5.968-11.208-13.874-11.732-20.06-.486-5.752 1.428-12.428 4.502-17.174 3.075-4.748 7.554-8.288 13.949-12.084 6.49-3.854 15.13-8.35 25.126-14.216s21.48-12.984 33.61-20.208Z"/><path d="M146.422 61.655c9.976-5.998 19.588-10.616 28.378-13.408s16.75-3.744 23.796-2.994c11.452 1.22 19.918 7.406 25.384 16.388 4.026 6.618 7.3 14.082 10.832 20.126 4.181 7.158 7.14 12.672 7.63 18.098.492 5.426-1.524 10.83-6.146 16.638-3.072 3.86-7.143 7.836-12.339 11.852-5.197 4.016-11.53 8.082-18.853 11.978-8.224 4.378-18.726 7.85-29.554 10.42-10.828 2.57-21.998 4.258-32.542 5.262-10.544 1.004-20.435 1.412-29.466.936-13.91-.732-25.314-4.274-33.015-9.912-7.7-5.64-11.713-13.338-12.372-19.392-.615-5.678 1.258-12.384 4.382-17.292 3.124-4.906 7.7-8.63 14.252-12.676 6.643-4.102 15.437-8.978 25.572-15.124 10.14-6.148 21.781-13.516 34.061-20.9Z"/><path d="M148.778 61.331c10.07-6.102 19.756-10.85 28.584-13.744s16.794-3.922 23.798-3.19c11.502 1.204 19.885 7.596 25.296 16.71 3.965 6.676 7.16 14.186 10.65 20.284 4.14 7.234 7.256 12.716 8.006 18.06.75 5.342-.906 10.608-5.23 16.31-2.886 3.806-6.822 7.75-11.934 11.764-5.111 4.014-11.412 8.106-18.733 12.066-8.22 4.444-18.803 7.984-29.761 10.618-10.958 2.634-22.308 4.384-33.052 5.486-10.746 1.102-20.884 1.594-30.086 1.362-14.122-.354-25.855-3.444-33.838-8.748-7.981-5.304-12.227-12.788-13.017-18.71-.748-5.6 1.075-12.318 4.25-17.384 3.173-5.066 7.85-8.978 14.567-13.286 6.798-4.36 15.725-9.612 26-16.032 10.278-6.422 22.072-14.036 34.5-21.566Z"/><path d="M151.14 60.981c10.16-6.196 19.918-11.062 28.782-14.046 8.865-2.984 16.834-4.078 23.792-3.352 11.548 1.202 19.844 7.816 25.204 17.068 3.902 6.736 7.018 14.288 10.468 20.434 4.098 7.3 7.374 12.75 8.384 18.006 1.012 5.258-.284 10.384-4.302 15.974-2.696 3.75-6.492 7.656-11.516 11.664s-11.282 8.122-18.6 12.142c-8.206 4.506-18.866 8.108-29.948 10.796-11.082 2.688-22.606 4.492-33.548 5.676-10.942 1.184-21.332 1.788-30.716 1.738-14.352-.074-26.394-2.632-34.658-7.596-8.264-4.964-12.748-12.226-13.674-18.012-.882-5.516.886-12.224 4.11-17.452 3.226-5.228 7.998-9.336 14.892-13.912 4.64-3.088 10.248-6.59 16.502-10.586a7150.167 7150.167 0 0 0 20.782-13.346c7.548-4.858 15.666-10.086 24.046-15.196Z"/><path d="M153.502 60.607c10.248-6.28 20.071-11.252 28.97-14.318 8.9-3.064 16.868-4.21 23.78-3.484 11.592 1.218 19.798 8.072 25.107 17.462 3.842 6.796 6.878 14.386 10.287 20.572 4.055 7.36 7.492 12.77 8.763 17.94 1.275 5.17.343 10.158-3.367 15.636-2.5 3.69-6.154 7.556-11.087 11.554-4.93 3.998-11.143 8.132-18.453 12.208-8.188 4.566-18.92 8.224-30.12 10.96-11.2 2.736-22.893 4.578-34.028 5.836-11.136 1.256-21.745 1.964-31.344 2.078-14.63.176-26.937-1.854-35.488-6.474-8.552-4.62-13.274-11.648-14.336-17.298-1.02-5.428.681-12.106 3.962-17.498 3.28-5.392 8.16-9.698 15.228-14.554 4.748-3.27 10.422-7.022 16.756-11.2 6.334-4.18 13.403-8.848 21.044-13.86 7.643-5.014 15.855-10.37 24.326-15.56Z"/><path d="M155.868 60.213c10.332-6.352 20.22-11.422 29.15-14.556 8.93-3.132 16.896-4.318 23.76-3.58 11.632 1.248 19.748 8.35 25.008 17.894 3.79 6.86 6.734 14.48 10.104 20.698 8.029 14.82 13.516 22.426 6.718 33.15-2.3 3.628-5.807 7.448-10.64 11.432-4.831 3.984-10.996 8.132-18.293 12.262-8.168 4.622-18.962 8.332-30.275 11.108-11.311 2.776-23.166 4.65-34.488 5.964-11.321 1.314-22.148 2.112-31.962 2.378-14.907.402-27.487-1.112-36.33-5.384-8.84-4.27-13.808-11.058-15.008-16.568-1.162-5.338.469-11.964 3.805-17.52 3.334-5.556 8.327-10.068 15.573-15.212a972.089 972.089 0 0 1 16.986-11.804c6.414-4.36 13.57-9.2 21.302-14.36 7.729-5.162 16.032-10.64 24.59-15.902Z"/><path d="M158.574 59.385c10.418-6.43 20.368-11.586 29.326-14.77 8.956-3.184 16.912-4.386 23.72-3.61 11.66 1.326 19.66 8.744 24.849 18.472 3.713 6.95 6.52 14.63 9.815 20.896 7.86 14.954 14.137 22.254 8.002 32.734-2.084 3.558-5.424 7.328-10.138 11.294-4.714 3.966-10.803 8.122-18.07 12.308-8.128 4.672-18.966 8.436-30.388 11.258-11.42 2.82-23.44 4.732-34.962 6.114-11.521 1.382-22.58 2.282-32.624 2.702-15.208.638-28.09-.348-37.223-4.258-9.134-3.91-14.344-10.462-15.666-15.858-1.29-5.27.292-11.888 3.695-17.632 3.404-5.744 8.574-10.302 15.988-15.99 4.966-3.816 10.718-7.91 17.218-12.47 6.5-4.562 13.752-9.596 21.582-14.92 7.826-5.326 16.23-10.934 24.876-16.27Z"/><path d="M160.826 59.099c10.492-6.476 20.498-11.702 29.48-14.932 8.982-3.23 16.932-4.452 23.69-3.654 11.698 1.38 19.608 9.074 24.76 18.94 3.66 7.004 6.398 14.692 9.663 20.964 7.803 14.994 14.86 22.016 9.349 32.256-1.878 3.49-5.068 7.208-9.681 11.154-4.615 3.946-10.651 8.11-17.9 12.34-8.096 4.72-18.991 8.524-30.508 11.364-11.52 2.84-23.68 4.756-35.374 6.164-11.695 1.408-22.955 2.36-33.203 2.896-15.47.808-28.648.29-38.076-3.266-9.426-3.556-14.891-9.846-16.357-15.086-1.445-5.16.046-11.676 3.502-17.58 3.458-5.902 8.813-10.752 16.315-16.692 5.017-3.974 10.83-8.236 17.402-12.958 6.573-4.722 13.907-9.91 21.817-15.362 7.909-5.452 16.395-11.164 25.12-16.548Z"/><path d="M163.074 58.8c10.563-6.513 20.622-11.797 29.626-15.063 9.004-3.266 16.944-4.498 23.654-3.668 11.737 1.45 19.554 9.432 24.668 19.44 3.61 7.06 6.275 14.748 9.508 21.016 7.732 14.982 15.59 21.764 10.702 31.764-1.672 3.422-4.708 7.084-9.216 11.004-4.507 3.92-10.49 8.092-17.715 12.364-8.067 4.764-19.015 8.606-30.626 11.462-11.613 2.856-23.914 4.766-35.775 6.188a581.372 581.372 0 0 1-33.754 3.044c-15.74.958-29.223.876-38.94-2.324-9.716-3.198-15.438-9.214-17.048-14.298-1.598-5.044-.21-11.442 3.3-17.506 3.512-6.064 9.043-11.212 16.627-17.392 5.063-4.13 10.94-8.556 17.584-13.436a1097.14 1097.14 0 0 1 22.046-15.79c7.992-5.574 16.559-11.378 25.359-16.804Z"/><path d="M252.62 80.705c6.484 12.658 13.839 19.004 13.217 26.796-.622 7.792-9.731 17.092-27.425 27.686-8.027 4.808-19.014 8.68-30.706 11.542-11.691 2.862-24.12 4.756-36.14 6.18-12.02 1.426-23.67 2.444-34.324 3.164-15.981 1.082-29.783 1.414-39.796-1.426-10.012-2.84-16.002-8.58-17.758-13.504-1.757-4.924-.475-11.19 3.09-17.416 3.567-6.226 9.258-11.672 16.924-18.092 5.11-4.28 11.049-8.866 17.76-13.9a946.111 946.111 0 0 1 22.27-16.204c8.07-5.69 16.718-11.58 25.59-17.038 17.744-10.916 33.88-18.154 46.357-19 12.475-.844 21.343 4.616 27.408 13.124 6.063 8.512 9.21 19.65 13.533 28.088Z"/><path d="M159.37 65.623c13.446-8.11 26.148-14.502 37.005-17.536 10.855-3.034 19.855-2.694 26.913.564 6.788 3.134 11.83 8.87 15.645 15.48 3.813 6.61 7.393 13.552 11.145 19.416 6.586 10.298 13.358 16.454 14.34 23.172.545 3.718-.67 7.57-4.094 11.842-4.725 5.896-13.907 12.68-26.454 19.786-8.783 4.976-20.432 8.86-32.525 11.546-12.094 2.684-24.676 4.226-36.691 5.242a575.8 575.8 0 0 1-33.941 1.836c-14.645.368-27.38-.138-36.695-3.222-9.313-3.084-15.01-8.482-16.92-12.828-1.975-4.496-1.328-9.426 1.98-15.284 3.307-5.858 8.496-10.478 15.946-16.224 7.452-5.746 16.752-12.212 27.674-19.732 10.929-7.52 23.484-16.102 36.672-24.058Z"/></g><path filter="url(#i)" d="M252.41 340h110.815l-95.766-172.04L420 0H309.186l-83.453 91.8L174.43 0H63.616l93.029 167.96L0 340h110.814l88.241-96.56z" transform="translate(751 -267)" fill="url(#h)" fill-opacity=".24"/></g></svg>